Consolig-Regular.ufo
<glyph name="ampersand_ampersand.liga" format="2">
  <advance width="0"/>
  <outline>
    <contour>
      <point x="514" y="1237" type="curve" smooth="yes"/>
      <point x="410" y="1237"/>
      <point x="350" y="1170"/>
      <point x="350" y="1067" type="curve" smooth="yes"/>
      <point x="350" y="975"/>
      <point x="386" y="925"/>
      <point x="434" y="864" type="curve" smooth="yes"/>
      <point x="461" y="829" type="line"/>
      <point x="537" y="871"/>
      <point x="618" y="917"/>
      <point x="654" y="996" type="curve" smooth="yes"/>
      <point x="665" y="1020"/>
      <point x="670" y="1047"/>
      <point x="670" y="1077" type="curve" smooth="yes"/>
      <point x="670" y="1175"/>
      <point x="611" y="1237"/>
    </contour>
    <contour>
      <point x="238" y="373" type="curve" smooth="yes"/>
      <point x="238" y="224"/>
      <point x="333" y="135"/>
      <point x="483" y="135" type="curve" smooth="yes"/>
      <point x="570" y="135"/>
      <point x="646" y="167"/>
      <point x="711" y="231" type="curve"/>
      <point x="393" y="629" type="line"/>
      <point x="355" y="601" type="line"/>
      <point x="294" y="548"/>
      <point x="238" y="486"/>
    </contour>
    <contour>
      <point x="848" y="1094" type="curve" smooth="yes"/>
      <point x="848" y="881"/>
      <point x="687" y="797"/>
      <point x="549" y="719" type="curve"/>
      <point x="807" y="397" type="line"/>
      <point x="836" y="476"/>
      <point x="848" y="571"/>
      <point x="848" y="682" type="curve"/>
      <point x="1024" y="682" type="line"/>
      <point x="1024" y="506"/>
      <point x="988" y="365"/>
      <point x="924" y="252" type="curve"/>
      <point x="1126" y="0" type="line"/>
      <point x="895" y="0" type="line"/>
      <point x="807" y="109" type="line"/>
      <point x="722" y="37"/>
      <point x="607" y="-14"/>
      <point x="459" y="-14" type="curve" smooth="yes"/>
      <point x="266" y="-14"/>
      <point x="139" y="66"/>
      <point x="84" y="204" type="curve" smooth="yes"/>
      <point x="66" y="249"/>
      <point x="57" y="298"/>
      <point x="57" y="352" type="curve" smooth="yes"/>
      <point x="57" y="362"/>
      <point x="57" y="372"/>
      <point x="57" y="382" type="curve"/>
      <point x="-172" y="212" type="line"/>
      <point x="0" y="0" type="line"/>
      <point x="-231" y="0" type="line"/>
      <point x="-319" y="109" type="line"/>
      <point x="-404" y="37"/>
      <point x="-519" y="-14"/>
      <point x="-667" y="-14" type="curve" smooth="yes"/>
      <point x="-860" y="-14"/>
      <point x="-987" y="66"/>
      <point x="-1042" y="204" type="curve" smooth="yes"/>
      <point x="-1060" y="249"/>
      <point x="-1069" y="298"/>
      <point x="-1069" y="352" type="curve" smooth="yes"/>
      <point x="-1069" y="560"/>
      <point x="-953" y="662"/>
      <point x="-823" y="741" type="curve"/>
      <point x="-845" y="772" type="line"/>
      <point x="-904" y="846"/>
      <point x="-956" y="936"/>
      <point x="-956" y="1051" type="curve" smooth="yes"/>
      <point x="-956" y="1213"/>
      <point x="-875" y="1313"/>
      <point x="-756" y="1359" type="curve" smooth="yes"/>
      <point x="-712" y="1376"/>
      <point x="-662" y="1384"/>
      <point x="-606" y="1384" type="curve" smooth="yes"/>
      <point x="-450" y="1384"/>
      <point x="-344" y="1316"/>
      <point x="-300" y="1206" type="curve" smooth="yes"/>
      <point x="-286" y="1171"/>
      <point x="-280" y="1133"/>
      <point x="-280" y="1094" type="curve" smooth="yes"/>
      <point x="-280" y="881"/>
      <point x="-439" y="797"/>
      <point x="-577" y="719" type="curve"/>
      <point x="-272" y="344" type="line"/>
      <point x="303" y="741" type="line"/>
      <point x="281" y="772" type="line"/>
      <point x="222" y="846"/>
      <point x="170" y="936"/>
      <point x="170" y="1051" type="curve" smooth="yes"/>
      <point x="170" y="1213"/>
      <point x="251" y="1313"/>
      <point x="370" y="1359" type="curve" smooth="yes"/>
      <point x="414" y="1376"/>
      <point x="464" y="1384"/>
      <point x="520" y="1384" type="curve" smooth="yes"/>
      <point x="676" y="1384"/>
      <point x="782" y="1316"/>
      <point x="826" y="1206" type="curve" smooth="yes"/>
      <point x="840" y="1171"/>
      <point x="848" y="1133"/>
    </contour>
    <contour>
      <point x="-612" y="1237" type="curve" smooth="yes"/>
      <point x="-716" y="1237"/>
      <point x="-776" y="1170"/>
      <point x="-776" y="1067" type="curve" smooth="yes"/>
      <point x="-776" y="975"/>
      <point x="-740" y="925"/>
      <point x="-692" y="864" type="curve" smooth="yes"/>
      <point x="-665" y="829" type="line"/>
      <point x="-589" y="871"/>
      <point x="-508" y="917"/>
      <point x="-472" y="996" type="curve" smooth="yes"/>
      <point x="-461" y="1020"/>
      <point x="-456" y="1047"/>
      <point x="-456" y="1077" type="curve" smooth="yes"/>
      <point x="-456" y="1175"/>
      <point x="-515" y="1237"/>
    </contour>
    <contour>
      <point x="-733" y="629" type="line"/>
      <point x="-813" y="577"/>
      <point x="-888" y="503"/>
      <point x="-888" y="373" type="curve" smooth="yes"/>
      <point x="-888" y="224"/>
      <point x="-793" y="135"/>
      <point x="-643" y="135" type="curve" smooth="yes"/>
      <point x="-556" y="135"/>
      <point x="-480" y="167"/>
      <point x="-415" y="231" type="curve"/>
    </contour>
  </outline>
</glyph>
<glyph name="asciicircum_equal.liga" format="2">
  <advance width="1126"/>
  <outline>
    <contour>
      <point x="993" y="298" type="line"/>
      <point x="-277" y="298" type="line"/>
      <point x="-277" y="445" type="line"/>
      <point x="993" y="445" type="line"/>
    </contour>
    <contour>
      <point x="-187" y="793" type="line"/>
      <point x="993" y="793" type="line"/>
      <point x="993" y="646" type="line"/>
      <point x="-277" y="646" type="line"/>
      <point x="-575" y="1169" type="line"/>
      <point x="-847" y="668" type="line"/>
      <point x="-1005" y="668" type="line"/>
      <point x="-639" y="1307" type="line"/>
      <point x="-497" y="1307" type="line"/>
    </contour>
  </outline>
</glyph>
<glyph name="asciitilde_asciitilde.liga" format="2">
  <advance width="1126"/>
  <outline>
    <contour>
      <point x="1061" y="696" type="line"/>
      <point x="1061" y="531"/>
      <point x="996" y="421"/>
      <point x="880" y="370" type="curve" smooth="yes"/>
      <point x="839" y="352"/>
      <point x="791" y="344"/>
      <point x="737" y="344" type="curve" smooth="yes"/>
      <point x="522" y="344"/>
      <point x="451" y="505"/>
      <point x="311" y="578" type="curve" smooth="yes"/>
      <point x="288" y="590"/>
      <point x="271" y="596"/>
      <point x="245" y="596" type="curve" smooth="yes"/>
      <point x="188" y="596"/>
      <point x="145" y="561"/>
      <point x="109" y="531" type="curve" smooth="yes"/>
      <point x="35" y="470"/>
      <point x="-34" y="397"/>
      <point x="-134" y="362" type="curve" smooth="yes"/>
      <point x="-168" y="350"/>
      <point x="-201" y="344"/>
      <point x="-243" y="344" type="curve" smooth="yes"/>
      <point x="-419" y="344"/>
      <point x="-506" y="451"/>
      <point x="-603" y="531" type="curve" smooth="yes"/>
      <point x="-641" y="562"/>
      <point x="-683" y="596"/>
      <point x="-745" y="596" type="curve" smooth="yes"/>
      <point x="-790" y="596"/>
      <point x="-835" y="580"/>
      <point x="-857" y="549" type="curve" smooth="yes"/>
      <point x="-879" y="518"/>
      <point x="-902" y="468"/>
      <point x="-902" y="401" type="curve"/>
      <point x="-1061" y="401" type="line"/>
      <point x="-1061" y="565"/>
      <point x="-995" y="678"/>
      <point x="-881" y="728" type="curve" smooth="yes"/>
      <point x="-840" y="746"/>
      <point x="-792" y="754"/>
      <point x="-738" y="754" type="curve" smooth="yes"/>
      <point x="-523" y="754"/>
      <point x="-452" y="593"/>
      <point x="-312" y="520" type="curve" smooth="yes"/>
      <point x="-289" y="508"/>
      <point x="-272" y="502"/>
      <point x="-246" y="502" type="curve" smooth="yes"/>
      <point x="-190" y="502"/>
      <point x="-148" y="538"/>
      <point x="-112" y="567" type="curve" smooth="yes"/>
      <point x="-17" y="646"/>
      <point x="72" y="754"/>
      <point x="245" y="754" type="curve" smooth="yes"/>
      <point x="460" y="754"/>
      <point x="531" y="593"/>
      <point x="671" y="520" type="curve" smooth="yes"/>
      <point x="694" y="508"/>
      <point x="718" y="502"/>
      <point x="744" y="502" type="curve" smooth="yes"/>
      <point x="792" y="502"/>
      <point x="838" y="517"/>
      <point x="859" y="548" type="curve" smooth="yes"/>
      <point x="880" y="579"/>
      <point x="902" y="628"/>
      <point x="902" y="696" type="curve"/>
    </contour>
  </outline>
</glyph>
<glyph name="asciitilde_at.liga" format="2">
  <advance width="1126"/>
  <outline>
    <contour>
      <point x="440" y="373" type="curve" smooth="yes"/>
      <point x="440" y="365"/>
      <point x="440" y="358"/>
      <point x="440" y="350" type="curve" smooth="yes"/>
      <point x="440" y="272"/>
      <point x="442" y="193"/>
      <point x="498" y="193" type="curve" smooth="yes"/>
      <point x="540" y="193"/>
      <point x="558" y="228"/>
      <point x="577" y="258" type="curve" smooth="yes"/>
      <point x="588" y="275"/>
      <point x="599" y="298"/>
      <point x="612" y="326" type="curve"/>
      <point x="678" y="764" type="line"/>
      <point x="664" y="783"/>
      <point x="639" y="795"/>
      <point x="604" y="795" type="curve" smooth="yes"/>
      <point x="555" y="795"/>
      <point x="527" y="754"/>
      <point x="508" y="718" type="curve" smooth="yes"/>
      <point x="463" y="631"/>
      <point x="440" y="501"/>
    </contour>
    <contour>
      <point x="612" y="924" type="curve" smooth="yes"/>
      <point x="654" y="924"/>
      <point x="707" y="912"/>
      <point x="731" y="897" type="curve"/>
      <point x="860" y="928" type="line"/>
      <point x="780" y="408" type="line" smooth="yes"/>
      <point x="774" y="368"/>
      <point x="769" y="331"/>
      <point x="769" y="297" type="curve" smooth="yes"/>
      <point x="769" y="276"/>
      <point x="771" y="256"/>
      <point x="776" y="236" type="curve" smooth="yes"/>
      <point x="783" y="207"/>
      <point x="798" y="193"/>
      <point x="831" y="193" type="curve" smooth="yes"/>
      <point x="886" y="193"/>
      <point x="911" y="259"/>
      <point x="928" y="314" type="curve" smooth="yes"/>
      <point x="960" y="416"/>
      <point x="971" y="544"/>
      <point x="971" y="692" type="curve" smooth="yes"/>
      <point x="971" y="939"/>
      <point x="939" y="1166"/>
      <point x="794" y="1262" type="curve" smooth="yes"/>
      <point x="752" y="1290"/>
      <point x="711" y="1303"/>
      <point x="643" y="1303" type="curve" smooth="yes"/>
      <point x="521" y="1303"/>
      <point x="425" y="1241"/>
      <point x="358" y="1172" type="curve" smooth="yes"/>
      <point x="317" y="1130"/>
      <point x="282" y="1084"/>
      <point x="242" y="1022" type="curve" smooth="yes"/>
      <point x="123" y="838"/>
      <point x="54" y="730"/>
      <point x="-67" y="544" type="curve" smooth="yes"/>
      <point x="-134" y="444"/>
      <point x="-184" y="344"/>
      <point x="-348" y="344" type="curve" smooth="yes"/>
      <point x="-427" y="344"/>
      <point x="-481" y="373"/>
      <point x="-528" y="409" type="curve" smooth="yes"/>
      <point x="-576" y="445"/>
      <point x="-618" y="491"/>
      <point x="-660" y="531" type="curve" smooth="yes"/>
      <point x="-692" y="562"/>
      <point x="-729" y="596"/>
      <point x="-784" y="596" type="curve" smooth="yes"/>
      <point x="-879" y="596"/>
      <point x="-900" y="510"/>
      <point x="-900" y="401" type="curve"/>
      <point x="-1060" y="401" type="line"/>
      <point x="-1060" y="602"/>
      <point x="-976" y="754"/>
      <point x="-778" y="754" type="curve" smooth="yes"/>
      <point x="-699" y="754"/>
      <point x="-645" y="725"/>
      <point x="-598" y="689" type="curve" smooth="yes"/>
      <point x="-550" y="653"/>
      <point x="-508" y="607"/>
      <point x="-466" y="567" type="curve" smooth="yes"/>
      <point x="-434" y="536"/>
      <point x="-397" y="502"/>
      <point x="-342" y="502" type="curve" smooth="yes"/>
      <point x="-300" y="502"/>
      <point x="-274" y="519"/>
      <point x="-252" y="548" type="curve" smooth="yes"/>
      <point x="-191" y="629"/>
      <point x="-22" y="895"/>
      <point x="123" y="1110" type="curve" smooth="yes"/>
      <point x="211" y="1239"/>
      <point x="300" y="1327"/>
      <point x="446" y="1386" type="curve" smooth="yes"/>
      <point x="510" y="1412"/>
      <point x="578" y="1425"/>
      <point x="650" y="1425" type="curve" smooth="yes"/>
      <point x="827" y="1425"/>
      <point x="930" y="1349"/>
      <point x="1000" y="1236" type="curve" smooth="yes"/>
      <point x="1080" y="1108"/>
      <point x="1112" y="922"/>
      <point x="1112" y="709" type="curve" smooth="yes"/>
      <point x="1112" y="507"/>
      <point x="1091" y="339"/>
      <point x="1029" y="214" type="curve" smooth="yes"/>
      <point x="987" y="130"/>
      <point x="921" y="63"/>
      <point x="811" y="63" type="curve" smooth="yes"/>
      <point x="712" y="63"/>
      <point x="657" y="116"/>
      <point x="657" y="211" type="curve"/>
      <point x="632" y="160"/>
      <point x="604" y="122"/>
      <point x="575" y="98" type="curve" smooth="yes"/>
      <point x="546" y="74"/>
      <point x="510" y="63"/>
      <point x="469" y="63" type="curve" smooth="yes"/>
      <point x="320" y="63"/>
      <point x="281" y="189"/>
      <point x="281" y="356" type="curve" smooth="yes"/>
      <point x="281" y="546"/>
      <point x="326" y="718"/>
      <point x="412" y="826" type="curve" smooth="yes"/>
      <point x="455" y="880"/>
      <point x="520" y="924"/>
    </contour>
  </outline>
</glyph>
<glyph name="asciitilde_equal.liga" format="2">
  <advance width="1126"/>
  <outline>
    <contour>
      <point x="747" y="936" type="line"/>
      <point x="747" y="756"/>
      <point x="647" y="656"/>
      <point x="509" y="610" type="curve" smooth="yes"/>
      <point x="455" y="592"/>
      <point x="393" y="584"/>
      <point x="322" y="584" type="curve" smooth="yes"/>
      <point x="210" y="584"/>
      <point x="124" y="610"/>
      <point x="52" y="651" type="curve" smooth="yes"/>
      <point x="-10" y="685"/>
      <point x="-58" y="735"/>
      <point x="-115" y="771" type="curve" smooth="yes"/>
      <point x="-173" y="808"/>
      <point x="-244" y="836"/>
      <point x="-332" y="836" type="curve" smooth="yes"/>
      <point x="-391" y="836"/>
      <point x="-485" y="820"/>
      <point x="-513" y="789" type="curve" smooth="yes"/>
      <point x="-541" y="758"/>
      <point x="-586" y="708"/>
      <point x="-586" y="641" type="curve"/>
      <point x="-746" y="641" type="line"/>
      <point x="-746" y="819"/>
      <point x="-646" y="923"/>
      <point x="-510" y="968" type="curve" smooth="yes"/>
      <point x="-456" y="986"/>
      <point x="-394" y="994"/>
      <point x="-323" y="994" type="curve" smooth="yes"/>
      <point x="-211" y="994"/>
      <point x="-125" y="968"/>
      <point x="-52" y="927" type="curve" smooth="yes"/>
      <point x="10" y="893"/>
      <point x="57" y="843"/>
      <point x="114" y="807" type="curve" smooth="yes"/>
      <point x="172" y="770"/>
      <point x="243" y="742"/>
      <point x="331" y="742" type="curve" smooth="yes"/>
      <point x="394" y="742"/>
      <point x="489" y="757"/>
      <point x="516" y="788" type="curve" smooth="yes"/>
      <point x="543" y="819"/>
      <point x="587" y="868"/>
      <point x="587" y="936" type="curve"/>
    </contour>
    <contour>
      <point x="747" y="298" type="line"/>
      <point x="-746" y="298" type="line"/>
      <point x="-746" y="445" type="line"/>
      <point x="747" y="445" type="line"/>
    </contour>
  </outline>
</glyph>
<glyph name="asciitilde_greater.liga" format="2">
  <advance width="1126"/>
  <outline>
    <contour>
      <point x="-919" y="401" type="line"/>
      <point x="-919.087" y="405.36"/>
      <point x="-919.13" y="409.698"/>
      <point x="-919.13" y="414.011" type="curve" smooth="yes"/>
      <point x="-919.13" y="608.523"/>
      <point x="-830.705" y="754"/>
      <point x="-637" y="754" type="curve" smooth="yes"/>
      <point x="-558" y="754"/>
      <point x="-504" y="725"/>
      <point x="-457" y="689" type="curve" smooth="yes"/>
      <point x="-409" y="653"/>
      <point x="-367" y="607"/>
      <point x="-325" y="567" type="curve" smooth="yes"/>
      <point x="-293" y="536"/>
      <point x="-256" y="502"/>
      <point x="-201" y="502" type="curve" smooth="yes"/>
      <point x="-159" y="502"/>
      <point x="5" y="606"/>
      <point x="49" y="618" type="curve" smooth="yes"/>
      <point x="110" y="635"/>
      <point x="160" y="642"/>
      <point x="232" y="642" type="curve" smooth="yes"/>
      <point x="297" y="642"/>
      <point x="405" y="634"/>
      <point x="510" y="629" type="curve"/>
      <point x="68" y="995" type="line"/>
      <point x="176" y="1106" type="line"/>
      <point x="848" y="545" type="line"/>
      <point x="176" y="-16" type="line"/>
      <point x="68" y="94" type="line"/>
      <point x="519" y="466" type="line"/>
      <point x="410" y="471"/>
      <point x="304" y="482"/>
      <point x="230" y="482" type="curve" smooth="yes"/>
      <point x="184" y="482"/>
      <point x="153" y="480"/>
      <point x="112" y="470" type="curve" smooth="yes"/>
      <point x="70" y="460"/>
      <point x="-42" y="390"/>
      <point x="-83" y="370" type="curve" smooth="yes"/>
      <point x="-119" y="352"/>
      <point x="-160" y="344"/>
      <point x="-207" y="344" type="curve" smooth="yes"/>
      <point x="-286" y="344"/>
      <point x="-340" y="373"/>
      <point x="-387" y="409" type="curve" smooth="yes"/>
      <point x="-435" y="445"/>
      <point x="-477" y="491"/>
      <point x="-519" y="531" type="curve" smooth="yes"/>
      <point x="-551" y="562"/>
      <point x="-588" y="596"/>
      <point x="-643" y="596" type="curve" smooth="yes"/>
      <point x="-738" y="596"/>
      <point x="-759" y="510"/>
      <point x="-759" y="401" type="curve"/>
    </contour>
  </outline>
</glyph>
<glyph name="asciitilde_hyphen.liga" format="2">
  <advance width="1126"/>
  <outline>
    <contour>
      <point x="-1060" y="401" type="line"/>
      <point x="-1060" y="602"/>
      <point x="-976" y="754"/>
      <point x="-778" y="754" type="curve" smooth="yes"/>
      <point x="-699" y="754"/>
      <point x="-645" y="725"/>
      <point x="-598" y="689" type="curve" smooth="yes"/>
      <point x="-550" y="653"/>
      <point x="-508" y="607"/>
      <point x="-466" y="567" type="curve" smooth="yes"/>
      <point x="-434" y="536"/>
      <point x="-397" y="502"/>
      <point x="-342" y="502" type="curve" smooth="yes"/>
      <point x="-300" y="502"/>
      <point x="-279" y="516"/>
      <point x="-247" y="532" type="curve" smooth="yes"/>
      <point x="-177" y="568"/>
      <point x="-64" y="627"/>
      <point x="29" y="627" type="curve" smooth="yes"/>
      <point x="862" y="627" type="line"/>
      <point x="862" y="463" type="line"/>
      <point x="59" y="463" type="line" smooth="yes"/>
      <point x="-75" y="463"/>
      <point x="-129" y="410"/>
      <point x="-224" y="370" type="curve" smooth="yes"/>
      <point x="-261" y="354"/>
      <point x="-301" y="344"/>
      <point x="-348" y="344" type="curve" smooth="yes"/>
      <point x="-427" y="344"/>
      <point x="-481" y="373"/>
      <point x="-528" y="409" type="curve" smooth="yes"/>
      <point x="-576" y="445"/>
      <point x="-618" y="491"/>
      <point x="-660" y="531" type="curve" smooth="yes"/>
      <point x="-692" y="562"/>
      <point x="-729" y="596"/>
      <point x="-784" y="596" type="curve" smooth="yes"/>
      <point x="-879" y="596"/>
      <point x="-900" y="510"/>
      <point x="-900" y="401" type="curve"/>
    </contour>
  </outline>
</glyph>
<glyph name="asterisk_asterisk_asterisk.liga" format="2">
  <advance width="1126"/>
  <outline>
    <contour>
      <point x="-366" y="558" type="line"/>
      <point x="-200" y="698" type="line"/>
      <point x="-536" y="1044" type="line"/>
      <point x="-648" y="948" type="line"/>
    </contour>
    <contour>
      <point x="-818" y="558" type="line"/>
      <point x="-536" y="948" type="line"/>
      <point x="-648" y="1044" type="line"/>
      <point x="-984" y="698" type="line"/>
    </contour>
    <contour>
      <point x="-618" y="926" type="line"/>
      <point x="-566" y="1066" type="line"/>
      <point x="-1006" y="1262" type="line"/>
      <point x="-1080" y="1058" type="line"/>
    </contour>
    <contour>
      <point x="-666" y="996" type="line"/>
      <point x="-518" y="996" type="line"/>
      <point x="-484" y="1476" type="line"/>
      <point x="-700" y="1476" type="line"/>
    </contour>
    <contour>
      <point x="-566" y="926" type="line"/>
      <point x="-104" y="1058" type="line"/>
      <point x="-178" y="1262" type="line"/>
      <point x="-618" y="1066" type="line"/>
    </contour>
    <contour>
      <point x="-1514" y="258" type="line"/>
      <point x="-1348" y="398" type="line"/>
      <point x="-1684" y="744" type="line"/>
      <point x="-1796" y="648" type="line"/>
    </contour>
    <contour>
      <point x="-1966" y="258" type="line"/>
      <point x="-1684" y="648" type="line"/>
      <point x="-1796" y="744" type="line"/>
      <point x="-2132" y="398" type="line"/>
    </contour>
    <contour>
      <point x="-1766" y="626" type="line"/>
      <point x="-1714" y="766" type="line"/>
      <point x="-2154" y="962" type="line"/>
      <point x="-2228" y="758" type="line"/>
    </contour>
    <contour>
      <point x="-1814" y="696" type="line"/>
      <point x="-1666" y="696" type="line"/>
      <point x="-1632" y="1176" type="line"/>
      <point x="-1848" y="1176" type="line"/>
    </contour>
    <contour>
      <point x="-1714" y="626" type="line"/>
      <point x="-1252" y="758" type="line"/>
      <point x="-1326" y="962" type="line"/>
      <point x="-1766" y="766" type="line"/>
    </contour>
    <contour>
      <point x="766" y="258" type="line"/>
      <point x="932" y="398" type="line"/>
      <point x="596" y="744" type="line"/>
      <point x="484" y="648" type="line"/>
    </contour>
    <contour>
      <point x="314" y="258" type="line"/>
      <point x="596" y="648" type="line"/>
      <point x="484" y="744" type="line"/>
      <point x="148" y="398" type="line"/>
    </contour>
    <contour>
      <point x="514" y="626" type="line"/>
      <point x="566" y="766" type="line"/>
      <point x="126" y="962" type="line"/>
      <point x="52" y="758" type="line"/>
    </contour>
    <contour>
      <point x="466" y="696" type="line"/>
      <point x="614" y="696" type="line"/>
      <point x="648" y="1176" type="line"/>
      <point x="432" y="1176" type="line"/>
    </contour>
    <contour>
      <point x="566" y="626" type="line"/>
      <point x="1028" y="758" type="line"/>
      <point x="954" y="962" type="line"/>
      <point x="514" y="766" type="line"/>
    </contour>
  </outline>
</glyph>
<glyph name="asterisk_greater.liga" format="2">
  <advance width="1126"/>
  <outline>
    <contour>
      <point x="0" y="995" type="line"/>
      <point x="108" y="1106" type="line"/>
      <point x="780" y="545" type="line"/>
      <point x="108" y="-16" type="line"/>
      <point x="0" y="94" type="line"/>
      <point x="545" y="543" type="line"/>
    </contour>
    <contour>
      <point x="-2" y="396" type="line"/>
      <point x="-70" y="277" type="line"/>
      <point x="-351" y="463" type="line"/>
      <point x="-328" y="121" type="line"/>
      <point x="-471" y="121" type="line"/>
      <point x="-449" y="463" type="line"/>
      <point x="-736" y="277" type="line"/>
      <point x="-799" y="394" type="line"/>
      <point x="-492" y="545" type="line"/>
      <point x="-799" y="699" type="line"/>
      <point x="-730" y="816" type="line"/>
      <point x="-447" y="627" type="line"/>
      <point x="-471" y="969" type="line"/>
      <point x="-328" y="969" type="line"/>
      <point x="-353" y="627" type="line"/>
      <point x="-70" y="818" type="line"/>
      <point x="0" y="695" type="line"/>
      <point x="-308" y="543" type="line"/>
    </contour>
  </outline>
</glyph>
<glyph name="asterisk_slash.liga" format="2">
  <advance width="1126"/>
  <outline>
    <contour>
      <point x="117" y="840" type="line"/>
      <point x="49" y="721" type="line"/>
      <point x="-232" y="907" type="line"/>
      <point x="-209" y="565" type="line"/>
      <point x="-352" y="565" type="line"/>
      <point x="-330" y="907" type="line"/>
      <point x="-617" y="721" type="line"/>
      <point x="-680" y="838" type="line"/>
      <point x="-373" y="989" type="line"/>
      <point x="-680" y="1143" type="line"/>
      <point x="-611" y="1260" type="line"/>
      <point x="-328" y="1071" type="line"/>
      <point x="-352" y="1413" type="line"/>
      <point x="-209" y="1413" type="line"/>
      <point x="-234" y="1071" type="line"/>
      <point x="49" y="1262" type="line"/>
      <point x="119" y="1139" type="line"/>
      <point x="-189" y="987" type="line"/>
    </contour>
    <contour>
      <point x="685" y="1413" type="line"/>
      <point x="0" y="-215" type="line"/>
      <point x="-167" y="-215" type="line"/>
      <point x="519" y="1413" type="line"/>
    </contour>
  </outline>
</glyph>
<glyph name="bar_bar.liga" format="2">
  <advance width="1126"/>
  <outline>
    <contour>
      <point x="504" y="-410" type="line"/>
      <point x="340" y="-410" type="line"/>
      <point x="340" y="1638" type="line"/>
      <point x="504" y="1638" type="line"/>
    </contour>
    <contour>
      <point x="-340" y="-410" type="line"/>
      <point x="-504" y="-410" type="line"/>
      <point x="-504" y="1638" type="line"/>
      <point x="-340" y="1638" type="line"/>
    </contour>
  </outline>
</glyph>
<glyph name="bar_bar_bar_greater.liga" format="2">
  <advance width="1126"/>
  <outline>
    <contour>
      <point x="-1607" y="-450" type="line"/>
      <point x="634" y="543" type="line"/>
      <point x="-1607" y="1678" type="line"/>
    </contour>
    <contour>
      <point x="-1771" y="1774" type="line"/>
      <point x="-1663" y="1885" type="line"/>
      <point x="989" y="545" type="line"/>
      <point x="-1663" y="-655" type="line"/>
      <point x="-1771" y="-545" type="line"/>
    </contour>
    <contour>
      <point x="-2170" y="-410" type="line"/>
      <point x="-2334" y="-410" type="line"/>
      <point x="-2334" y="1638" type="line"/>
      <point x="-2170" y="1638" type="line"/>
    </contour>
    <contour>
      <point x="-2732" y="-410" type="line"/>
      <point x="-2896" y="-410" type="line"/>
      <point x="-2896" y="1638" type="line"/>
      <point x="-2732" y="1638" type="line"/>
    </contour>
  </outline>
</glyph>
<glyph name="bar_bar_equal.liga" format="2">
  <advance width="1126"/>
  <outline>
    <contour>
      <point x="-1606" y="-410" type="line"/>
      <point x="-1770" y="-410" type="line"/>
      <point x="-1770" y="1638" type="line"/>
      <point x="-1606" y="1638" type="line"/>
    </contour>
    <contour>
      <point x="-1044" y="-410" type="line"/>
      <point x="-1208" y="-410" type="line"/>
      <point x="-1208" y="1638" type="line"/>
      <point x="-1044" y="1638" type="line"/>
      <point x="-1044" y="793" type="line"/>
      <point x="993" y="793" type="line"/>
      <point x="993" y="646" type="line"/>
      <point x="-1044" y="646" type="line"/>
      <point x="-1044" y="445" type="line"/>
      <point x="993" y="445" type="line"/>
      <point x="993" y="298" type="line"/>
      <point x="-1044" y="298" type="line"/>
    </contour>
  </outline>
</glyph>
<glyph name="bar_bar_greater.liga" format="2">
  <advance width="1126"/>
  <outline>
    <contour>
      <point x="-1440" y="-310" type="line"/>
      <point x="-1640" y="-310" type="line"/>
      <point x="-1640" y="1730" type="line"/>
      <point x="-1440" y="1730" type="line"/>
    </contour>
    <contour>
      <point x="-849" y="-10" type="line"/>
      <point x="655" y="608" type="line"/>
      <point x="655" y="810" type="line"/>
      <point x="-849" y="1430" type="line"/>
      <point x="-849" y="1190" type="line"/>
      <point x="397" y="718" type="line"/>
      <point x="397" y="700" type="line"/>
      <point x="-849" y="230" type="line"/>
    </contour>
    <contour>
      <point x="-849" y="-10" type="line"/>
      <point x="-649" y="90" type="line"/>
      <point x="-649" y="1330" type="line"/>
      <point x="-849" y="1430" type="line"/>
    </contour>
  </outline>
</glyph>
<glyph name="bar_braceright.liga" format="2">
  <advance width="1126"/>
  <outline>
    <contour>
      <point x="684" y="-45" type="line" smooth="yes"/>
      <point x="684" y="-295.242"/>
      <point x="556.33" y="-410"/>
      <point x="303" y="-410" type="curve" smooth="yes"/>
      <point x="-645" y="-410" type="line"/>
      <point x="-645" y="1448" type="line"/>
      <point x="303" y="1448" type="line" smooth="yes"/>
      <point x="555.785" y="1448"/>
      <point x="684" y="1332.93"/>
      <point x="684" y="1083" type="curve" smooth="yes"/>
      <point x="684" y="852" type="line" smooth="yes"/>
      <point x="684" y="698.407"/>
      <point x="765.858" y="645"/>
      <point x="922" y="645" type="curve" smooth="yes"/>
      <point x="965" y="645" type="line"/>
      <point x="965" y="506" type="line"/>
      <point x="922" y="506" type="line" smooth="yes"/>
      <point x="802.998" y="506"/>
      <point x="717.799" y="485.436"/>
      <point x="694" y="395" type="curve" smooth="yes"/>
      <point x="687.333" y="369.667"/>
      <point x="684" y="339.667"/>
      <point x="684" y="305" type="curve" smooth="yes"/>
    </contour>
    <contour>
      <point x="-481" y="1308" type="line"/>
      <point x="-481" y="-270" type="line"/>
      <point x="289" y="-270" type="line" smooth="yes"/>
      <point x="443" y="-270"/>
      <point x="520" y="-195"/>
      <point x="520" y="-45" type="curve" smooth="yes"/>
      <point x="520" y="301" type="line" smooth="yes"/>
      <point x="520" y="463.667"/>
      <point x="590.333" y="555"/>
      <point x="731" y="575" type="curve"/>
      <point x="589" y="590.333"/>
      <point x="518" y="682"/>
      <point x="518" y="850" type="curve" smooth="yes"/>
      <point x="518" y="1079" type="line" smooth="yes"/>
      <point x="518" y="1231.67"/>
      <point x="441.667" y="1308"/>
      <point x="289" y="1308" type="curve" smooth="yes"/>
    </contour>
  </outline>
</glyph>
<glyph name="bar_bracketright.liga" format="2">
  <advance width="1126"/>
  <outline>
    <contour>
      <point x="-645" y="1448" type="line"/>
      <point x="781" y="1448" type="line"/>
      <point x="781" y="-410" type="line"/>
      <point x="-645" y="-410" type="line"/>
    </contour>
    <contour>
      <point x="-481" y="1308" type="line"/>
      <point x="-481" y="-270" type="line"/>
      <point x="613" y="-270" type="line"/>
      <point x="613" y="1308" type="line"/>
    </contour>
  </outline>
</glyph>
<glyph name="bar_equal.liga" format="2">
  <advance width="1126"/>
  <outline>
    <contour>
      <point x="-546" y="-310" type="line"/>
      <point x="-746" y="-310" type="line"/>
      <point x="-746" y="1730" type="line"/>
      <point x="-546" y="1730" type="line"/>
    </contour>
    <contour>
      <point x="-680" y="866" type="line"/>
      <point x="920" y="866" type="line"/>
      <point x="920" y="1052" type="line"/>
      <point x="-680" y="1052" type="line"/>
    </contour>
    <contour>
      <point x="-680" y="366" type="line"/>
      <point x="920" y="366" type="line"/>
      <point x="920" y="552" type="line"/>
      <point x="-680" y="552" type="line"/>
    </contour>
  </outline>
</glyph>
<glyph name="bar_greater.liga" format="2">
  <advance width="1126"/>
  <outline>
    <contour>
      <point x="-481" y="-410" type="line"/>
      <point x="754" y="543" type="line"/>
      <point x="-481" y="1638" type="line"/>
    </contour>
    <contour>
      <point x="-645" y="1774" type="line"/>
      <point x="-537" y="1885" type="line"/>
      <point x="989" y="545" type="line"/>
      <point x="-537" y="-655" type="line"/>
      <point x="-645" y="-545" type="line"/>
    </contour>
  </outline>
</glyph>
<glyph name="braceleft_bar.liga" format="2">
  <advance width="1126"/>
  <outline>
    <contour>
      <point x="-684" y="1083" type="line" smooth="yes"/>
      <point x="-684" y="1332"/>
      <point x="-555" y="1448"/>
      <point x="-303" y="1448" type="curve" smooth="yes"/>
      <point x="645" y="1448" type="line"/>
      <point x="645" y="-410" type="line"/>
      <point x="-303" y="-410" type="line" smooth="yes"/>
      <point x="-556" y="-410"/>
      <point x="-684" y="-296"/>
      <point x="-684" y="-45" type="curve" smooth="yes"/>
      <point x="-684" y="299" type="line" smooth="yes"/>
      <point x="-684" y="452"/>
      <point x="-765" y="506"/>
      <point x="-921" y="506" type="curve" smooth="yes"/>
      <point x="-964" y="506" type="line"/>
      <point x="-964" y="645" type="line"/>
      <point x="-921" y="645" type="line" smooth="yes"/>
      <point x="-801" y="645"/>
      <point x="-719" y="666"/>
      <point x="-694" y="756" type="curve" smooth="yes"/>
      <point x="-687" y="781"/>
      <point x="-684" y="811"/>
      <point x="-684" y="846" type="curve" smooth="yes"/>
    </contour>
    <contour>
      <point x="481" y="1308" type="line"/>
      <point x="-288" y="1308" type="line" smooth="yes"/>
      <point x="-443" y="1308"/>
      <point x="-520" y="1233"/>
      <point x="-520" y="1083" type="curve" smooth="yes"/>
      <point x="-520" y="850" type="line" smooth="yes"/>
      <point x="-520" y="687"/>
      <point x="-590" y="596"/>
      <point x="-731" y="575" type="curve"/>
      <point x="-589" y="575"/>
      <point x="-518" y="470"/>
      <point x="-518" y="301" type="curve" smooth="yes"/>
      <point x="-518" y="-41" type="line" smooth="yes"/>
      <point x="-518" y="-194"/>
      <point x="-441" y="-270"/>
      <point x="-288" y="-270" type="curve" smooth="yes"/>
      <point x="481" y="-270" type="line"/>
    </contour>
  </outline>
</glyph>
<glyph name="braceright_numbersign.liga" format="2">
  <advance width="1126"/>
  <outline>
    <contour>
      <point x="-442" y="-45" type="line" smooth="yes"/>
      <point x="-442" y="-295"/>
      <point x="-570" y="-410"/>
      <point x="-823" y="-410" type="curve" smooth="yes"/>
      <point x="-897" y="-410" type="line"/>
      <point x="-897" y="-270" type="line"/>
      <point x="-837" y="-270" type="line" smooth="yes"/>
      <point x="-683" y="-270"/>
      <point x="-606" y="-195"/>
      <point x="-606" y="-45" type="curve" smooth="yes"/>
      <point x="-606" y="157" type="line" smooth="yes"/>
      <point x="-606" y="320"/>
      <point x="-536" y="411"/>
      <point x="-395" y="431" type="curve"/>
      <point x="-537" y="446"/>
      <point x="-606" y="538"/>
      <point x="-606" y="706" type="curve" smooth="yes"/>
      <point x="-606" y="1079" type="line" smooth="yes"/>
      <point x="-606" y="1232"/>
      <point x="-684" y="1308"/>
      <point x="-837" y="1308" type="curve" smooth="yes"/>
      <point x="-897" y="1308" type="line"/>
      <point x="-897" y="1448" type="line"/>
      <point x="-823" y="1448" type="line" smooth="yes"/>
      <point x="-570" y="1448"/>
      <point x="-442" y="1334"/>
      <point x="-442" y="1083" type="curve" smooth="yes"/>
      <point x="-442" y="977" type="line"/>
      <point x="318" y="977" type="line"/>
      <point x="352" y="1308" type="line"/>
      <point x="498" y="1308" type="line"/>
      <point x="465" y="977" type="line"/>
      <point x="721" y="977" type="line"/>
      <point x="755" y="1308" type="line"/>
      <point x="903" y="1308" type="line"/>
      <point x="868" y="977" type="line"/>
      <point x="1083" y="977" type="line"/>
      <point x="1083" y="847" type="line"/>
      <point x="855" y="847" type="line"/>
      <point x="820" y="497" type="line"/>
      <point x="1030" y="497" type="line"/>
      <point x="1030" y="367" type="line"/>
      <point x="807" y="367" type="line"/>
      <point x="770" y="0" type="line"/>
      <point x="622" y="0" type="line"/>
      <point x="659" y="367" type="line"/>
      <point x="404" y="367" type="line"/>
      <point x="367" y="0" type="line"/>
      <point x="219" y="0" type="line"/>
      <point x="256" y="367" type="line"/>
      <point x="-161" y="367" type="line"/>
      <point x="-204" y="367" type="line"/>
      <point x="-323" y="367"/>
      <point x="-406" y="344"/>
      <point x="-432" y="251" type="curve" smooth="yes"/>
      <point x="-439" y="226"/>
      <point x="-442" y="196"/>
      <point x="-442" y="161" type="curve" smooth="yes"/>
    </contour>
    <contour>
      <point x="673" y="497" type="line"/>
      <point x="708" y="847" type="line"/>
      <point x="452" y="847" type="line"/>
      <point x="417" y="497" type="line"/>
    </contour>
    <contour>
      <point x="-442" y="847" type="line"/>
      <point x="-442" y="708" type="line" smooth="yes"/>
      <point x="-442" y="554"/>
      <point x="-357" y="497"/>
      <point x="-204" y="497" type="curve"/>
      <point x="-161" y="497" type="line"/>
      <point x="269" y="497" type="line"/>
      <point x="305" y="847" type="line"/>
    </contour>
  </outline>
</glyph>
<glyph name="bracketleft_bar.liga" format="2">
  <advance width="1126"/>
  <outline>
    <contour>
      <point x="645" y="1448" type="line"/>
      <point x="645" y="-410" type="line"/>
      <point x="-781" y="-410" type="line"/>
      <point x="-781" y="1448" type="line"/>
    </contour>
    <contour>
      <point x="481" y="1308" type="line"/>
      <point x="-615" y="1308" type="line"/>
      <point x="-615" y="-270" type="line"/>
      <point x="481" y="-270" type="line"/>
    </contour>
  </outline>
</glyph>
<glyph name="bracketright_numbersign.liga" format="2">
  <advance width="1126"/>
  <outline>
    <contour>
      <point x="-345" y="-410" type="line"/>
      <point x="-838" y="-410" type="line"/>
      <point x="-838" y="-270" type="line"/>
      <point x="-513" y="-270" type="line"/>
      <point x="-513" y="1308" type="line"/>
      <point x="-838" y="1308" type="line"/>
      <point x="-838" y="1448" type="line"/>
      <point x="-345" y="1448" type="line"/>
      <point x="-345" y="977" type="line"/>
      <point x="318" y="977" type="line"/>
      <point x="352" y="1307" type="line"/>
      <point x="498" y="1307" type="line"/>
      <point x="465" y="977" type="line"/>
      <point x="721" y="977" type="line"/>
      <point x="755" y="1307" type="line"/>
      <point x="903" y="1307" type="line"/>
      <point x="868" y="977" type="line"/>
      <point x="1083" y="977" type="line"/>
      <point x="1083" y="847" type="line"/>
      <point x="855" y="847" type="line"/>
      <point x="820" y="497" type="line"/>
      <point x="1030" y="497" type="line"/>
      <point x="1030" y="367" type="line"/>
      <point x="807" y="367" type="line"/>
      <point x="770" y="0" type="line"/>
      <point x="622" y="0" type="line"/>
      <point x="659" y="367" type="line"/>
      <point x="404" y="367" type="line"/>
      <point x="367" y="0" type="line"/>
      <point x="219" y="0" type="line"/>
      <point x="256" y="367" type="line"/>
      <point x="-345" y="367" type="line"/>
    </contour>
    <contour>
      <point x="673" y="497" type="line"/>
      <point x="708" y="847" type="line"/>
      <point x="452" y="847" type="line"/>
      <point x="417" y="497" type="line"/>
    </contour>
    <contour>
      <point x="-345" y="847" type="line"/>
      <point x="-345" y="497" type="line"/>
      <point x="269" y="497" type="line"/>
      <point x="305" y="847" type="line"/>
    </contour>
  </outline>
</glyph>
<glyph name="colon_colon.liga" format="2">
  <advance width="1126"/>
  <outline>
    <contour>
      <point x="-281" y="1022" type="curve" smooth="yes"/>
      <point x="-210" y="1022"/>
      <point x="-162" y="977"/>
      <point x="-140" y="927" type="curve" smooth="yes"/>
      <point x="-131" y="908"/>
      <point x="-127" y="889"/>
      <point x="-127" y="868" type="curve" smooth="yes"/>
      <point x="-127" y="781"/>
      <point x="-194" y="715"/>
      <point x="-281" y="715" type="curve" smooth="yes"/>
      <point x="-369" y="715"/>
      <point x="-434" y="781"/>
      <point x="-434" y="868" type="curve" smooth="yes"/>
      <point x="-434" y="939"/>
      <point x="-390" y="987"/>
      <point x="-340" y="1010" type="curve" smooth="yes"/>
      <point x="-322" y="1018"/>
      <point x="-302" y="1022"/>
    </contour>
    <contour>
      <point x="-281" y="289" type="curve" smooth="yes"/>
      <point x="-210" y="289"/>
      <point x="-162" y="244"/>
      <point x="-140" y="194" type="curve" smooth="yes"/>
      <point x="-131" y="175"/>
      <point x="-127" y="156"/>
      <point x="-127" y="135" type="curve" smooth="yes"/>
      <point x="-127" y="48"/>
      <point x="-194" y="-18"/>
      <point x="-281" y="-18" type="curve" smooth="yes"/>
      <point x="-369" y="-18"/>
      <point x="-434" y="48"/>
      <point x="-434" y="135" type="curve" smooth="yes"/>
      <point x="-434" y="206"/>
      <point x="-390" y="254"/>
      <point x="-340" y="276" type="curve" smooth="yes"/>
      <point x="-322" y="285"/>
      <point x="-302" y="289"/>
    </contour>
    <contour>
      <point x="281" y="1022" type="curve" smooth="yes"/>
      <point x="352" y="1022"/>
      <point x="400" y="977"/>
      <point x="422" y="927" type="curve" smooth="yes"/>
      <point x="431" y="908"/>
      <point x="435" y="889"/>
      <point x="435" y="868" type="curve" smooth="yes"/>
      <point x="435" y="781"/>
      <point x="368" y="715"/>
      <point x="281" y="715" type="curve" smooth="yes"/>
      <point x="193" y="715"/>
      <point x="128" y="781"/>
      <point x="128" y="868" type="curve" smooth="yes"/>
      <point x="128" y="939"/>
      <point x="172" y="987"/>
      <point x="222" y="1010" type="curve" smooth="yes"/>
      <point x="240" y="1018"/>
      <point x="260" y="1022"/>
    </contour>
    <contour>
      <point x="281" y="289" type="curve" smooth="yes"/>
      <point x="352" y="289"/>
      <point x="400" y="244"/>
      <point x="422" y="194" type="curve" smooth="yes"/>
      <point x="431" y="175"/>
      <point x="435" y="156"/>
      <point x="435" y="135" type="curve" smooth="yes"/>
      <point x="435" y="48"/>
      <point x="368" y="-18"/>
      <point x="281" y="-18" type="curve" smooth="yes"/>
      <point x="193" y="-18"/>
      <point x="128" y="48"/>
      <point x="128" y="135" type="curve" smooth="yes"/>
      <point x="128" y="206"/>
      <point x="172" y="254"/>
      <point x="222" y="276" type="curve" smooth="yes"/>
      <point x="240" y="285"/>
      <point x="260" y="289"/>
    </contour>
  </outline>
</glyph>
<glyph name="colon_colon_colon.liga" format="2">
  <advance width="1126"/>
  <outline>
    <contour>
      <point x="200" y="784" type="curve" smooth="yes"/>
      <point x="282" y="784"/>
      <point x="348" y="850"/>
      <point x="348" y="932" type="curve" smooth="yes"/>
      <point x="348" y="1014"/>
      <point x="282" y="1080"/>
      <point x="200" y="1080" type="curve" smooth="yes"/>
      <point x="118" y="1080"/>
      <point x="52" y="1014"/>
      <point x="52" y="932" type="curve" smooth="yes"/>
      <point x="52" y="850"/>
      <point x="118" y="784"/>
    </contour>
    <contour>
      <point x="200" y="-20" type="curve" smooth="yes"/>
      <point x="282" y="-20"/>
      <point x="348" y="46"/>
      <point x="348" y="128" type="curve" smooth="yes"/>
      <point x="348" y="210"/>
      <point x="282" y="276"/>
      <point x="200" y="276" type="curve" smooth="yes"/>
      <point x="118" y="276"/>
      <point x="52" y="210"/>
      <point x="52" y="128" type="curve" smooth="yes"/>
      <point x="52" y="46"/>
      <point x="118" y="-20"/>
    </contour>
    <contour>
      <point x="-600" y="784" type="curve" smooth="yes"/>
      <point x="-518" y="784"/>
      <point x="-452" y="850"/>
      <point x="-452" y="932" type="curve" smooth="yes"/>
      <point x="-452" y="1014"/>
      <point x="-518" y="1080"/>
      <point x="-600" y="1080" type="curve" smooth="yes"/>
      <point x="-682" y="1080"/>
      <point x="-748" y="1014"/>
      <point x="-748" y="932" type="curve" smooth="yes"/>
      <point x="-748" y="850"/>
      <point x="-682" y="784"/>
    </contour>
    <contour>
      <point x="-600" y="-20" type="curve" smooth="yes"/>
      <point x="-518" y="-20"/>
      <point x="-452" y="46"/>
      <point x="-452" y="128" type="curve" smooth="yes"/>
      <point x="-452" y="210"/>
      <point x="-518" y="276"/>
      <point x="-600" y="276" type="curve" smooth="yes"/>
      <point x="-682" y="276"/>
      <point x="-748" y="210"/>
      <point x="-748" y="128" type="curve" smooth="yes"/>
      <point x="-748" y="46"/>
      <point x="-682" y="-20"/>
    </contour>
    <contour>
      <point x="-1400" y="784" type="curve" smooth="yes"/>
      <point x="-1318" y="784"/>
      <point x="-1252" y="850"/>
      <point x="-1252" y="932" type="curve" smooth="yes"/>
      <point x="-1252" y="1014"/>
      <point x="-1318" y="1080"/>
      <point x="-1400" y="1080" type="curve" smooth="yes"/>
      <point x="-1482" y="1080"/>
      <point x="-1548" y="1014"/>
      <point x="-1548" y="932" type="curve" smooth="yes"/>
      <point x="-1548" y="850"/>
      <point x="-1482" y="784"/>
    </contour>
    <contour>
      <point x="-1400" y="-20" type="curve" smooth="yes"/>
      <point x="-1318" y="-20"/>
      <point x="-1252" y="46"/>
      <point x="-1252" y="128" type="curve" smooth="yes"/>
      <point x="-1252" y="210"/>
      <point x="-1318" y="276"/>
      <point x="-1400" y="276" type="curve" smooth="yes"/>
      <point x="-1482" y="276"/>
      <point x="-1548" y="210"/>
      <point x="-1548" y="128" type="curve" smooth="yes"/>
      <point x="-1548" y="46"/>
      <point x="-1482" y="-20"/>
    </contour>
  </outline>
</glyph>
<glyph name="colon_colon_equal.liga" format="2">
  <advance width="1126"/>
  <outline>
    <contour>
      <point x="-1150" y="964" type="curve" smooth="yes"/>
      <point x="-1068" y="964"/>
      <point x="-1002" y="1030"/>
      <point x="-1002" y="1112" type="curve" smooth="yes"/>
      <point x="-1002" y="1194"/>
      <point x="-1068" y="1260"/>
      <point x="-1150" y="1260" type="curve" smooth="yes"/>
      <point x="-1232" y="1260"/>
      <point x="-1298" y="1194"/>
      <point x="-1298" y="1112" type="curve" smooth="yes"/>
      <point x="-1298" y="1030"/>
      <point x="-1232" y="964"/>
    </contour>
    <contour>
      <point x="-1150" y="160" type="curve" smooth="yes"/>
      <point x="-1068" y="160"/>
      <point x="-1002" y="226"/>
      <point x="-1002" y="308" type="curve" smooth="yes"/>
      <point x="-1002" y="390"/>
      <point x="-1068" y="456"/>
      <point x="-1150" y="456" type="curve" smooth="yes"/>
      <point x="-1232" y="456"/>
      <point x="-1298" y="390"/>
      <point x="-1298" y="308" type="curve" smooth="yes"/>
      <point x="-1298" y="226"/>
      <point x="-1232" y="160"/>
    </contour>
    <contour>
      <point x="-1920" y="964" type="curve" smooth="yes"/>
      <point x="-1838" y="964"/>
      <point x="-1772" y="1030"/>
      <point x="-1772" y="1112" type="curve" smooth="yes"/>
      <point x="-1772" y="1194"/>
      <point x="-1838" y="1260"/>
      <point x="-1920" y="1260" type="curve" smooth="yes"/>
      <point x="-2002" y="1260"/>
      <point x="-2068" y="1194"/>
      <point x="-2068" y="1112" type="curve" smooth="yes"/>
      <point x="-2068" y="1030"/>
      <point x="-2002" y="964"/>
    </contour>
    <contour>
      <point x="-1920" y="160" type="curve" smooth="yes"/>
      <point x="-1838" y="160"/>
      <point x="-1772" y="226"/>
      <point x="-1772" y="308" type="curve" smooth="yes"/>
      <point x="-1772" y="390"/>
      <point x="-1838" y="456"/>
      <point x="-1920" y="456" type="curve" smooth="yes"/>
      <point x="-2002" y="456"/>
      <point x="-2068" y="390"/>
      <point x="-2068" y="308" type="curve" smooth="yes"/>
      <point x="-2068" y="226"/>
      <point x="-2002" y="160"/>
    </contour>
    <contour>
      <point x="-500" y="866" type="line"/>
      <point x="920" y="866" type="line"/>
      <point x="920" y="1052" type="line"/>
      <point x="-500" y="1052" type="line"/>
    </contour>
    <contour>
      <point x="-500" y="366" type="line"/>
      <point x="920" y="366" type="line"/>
      <point x="920" y="552" type="line"/>
      <point x="-500" y="552" type="line"/>
    </contour>
  </outline>
</glyph>
<glyph name="colon_equal.liga" format="2">
  <advance width="1126"/>
  <outline>
    <contour>
      <point x="993" y="646" type="line"/>
      <point x="-155" y="646" type="line"/>
      <point x="-155" y="793" type="line"/>
      <point x="993" y="793" type="line"/>
    </contour>
    <contour>
      <point x="993" y="298" type="line"/>
      <point x="-155" y="298" type="line"/>
      <point x="-155" y="445" type="line"/>
      <point x="993" y="445" type="line"/>
    </contour>
    <contour>
      <point x="-563" y="1022" type="curve" smooth="yes"/>
      <point x="-492" y="1022"/>
      <point x="-444" y="977"/>
      <point x="-422" y="927" type="curve" smooth="yes"/>
      <point x="-413" y="908"/>
      <point x="-409" y="889"/>
      <point x="-409" y="868" type="curve" smooth="yes"/>
      <point x="-409" y="781"/>
      <point x="-476" y="715"/>
      <point x="-563" y="715" type="curve" smooth="yes"/>
      <point x="-651" y="715"/>
      <point x="-716" y="781"/>
      <point x="-716" y="868" type="curve" smooth="yes"/>
      <point x="-716" y="939"/>
      <point x="-672" y="987"/>
      <point x="-622" y="1010" type="curve" smooth="yes"/>
      <point x="-604" y="1018"/>
      <point x="-584" y="1022"/>
    </contour>
    <contour>
      <point x="-563" y="289" type="curve" smooth="yes"/>
      <point x="-492" y="289"/>
      <point x="-444" y="244"/>
      <point x="-422" y="194" type="curve" smooth="yes"/>
      <point x="-413" y="175"/>
      <point x="-409" y="156"/>
      <point x="-409" y="135" type="curve" smooth="yes"/>
      <point x="-409" y="48"/>
      <point x="-476" y="-18"/>
      <point x="-563" y="-18" type="curve" smooth="yes"/>
      <point x="-651" y="-18"/>
      <point x="-716" y="48"/>
      <point x="-716" y="135" type="curve" smooth="yes"/>
      <point x="-716" y="206"/>
      <point x="-672" y="254"/>
      <point x="-622" y="276" type="curve" smooth="yes"/>
      <point x="-604" y="285"/>
      <point x="-584" y="289"/>
    </contour>
  </outline>
</glyph>
<glyph name="colon_greater.liga" format="2">
  <advance width="1126"/>
  <outline>
    <contour>
      <point x="-660" y="964" type="curve" smooth="yes"/>
      <point x="-578" y="964"/>
      <point x="-512" y="1030"/>
      <point x="-512" y="1112" type="curve" smooth="yes"/>
      <point x="-512" y="1194"/>
      <point x="-578" y="1260"/>
      <point x="-660" y="1260" type="curve" smooth="yes"/>
      <point x="-742" y="1260"/>
      <point x="-808" y="1194"/>
      <point x="-808" y="1112" type="curve" smooth="yes"/>
      <point x="-808" y="1030"/>
      <point x="-742" y="964"/>
    </contour>
    <contour>
      <point x="-660" y="160" type="curve" smooth="yes"/>
      <point x="-578" y="160"/>
      <point x="-512" y="226"/>
      <point x="-512" y="308" type="curve" smooth="yes"/>
      <point x="-512" y="390"/>
      <point x="-578" y="456"/>
      <point x="-660" y="456" type="curve" smooth="yes"/>
      <point x="-742" y="456"/>
      <point x="-808" y="390"/>
      <point x="-808" y="308" type="curve" smooth="yes"/>
      <point x="-808" y="226"/>
      <point x="-742" y="160"/>
    </contour>
    <contour>
      <point x="-156" y="214" type="line"/>
      <point x="962" y="608" type="line"/>
      <point x="962" y="810" type="line"/>
      <point x="-156" y="1204" type="line"/>
      <point x="-156" y="984" type="line"/>
      <point x="664" y="718" type="line"/>
      <point x="664" y="700" type="line"/>
      <point x="-156" y="434" type="line"/>
    </contour>
  </outline>
</glyph>
<glyph name="colon_less.liga" format="2">
  <advance width="1126"/>
  <outline>
    <contour>
      <point x="-652" y="964" type="curve" smooth="yes"/>
      <point x="-570" y="964"/>
      <point x="-504" y="1030"/>
      <point x="-504" y="1112" type="curve" smooth="yes"/>
      <point x="-504" y="1194"/>
      <point x="-570" y="1260"/>
      <point x="-652" y="1260" type="curve" smooth="yes"/>
      <point x="-734" y="1260"/>
      <point x="-800" y="1194"/>
      <point x="-800" y="1112" type="curve" smooth="yes"/>
      <point x="-800" y="1030"/>
      <point x="-734" y="964"/>
    </contour>
    <contour>
      <point x="-652" y="160" type="curve" smooth="yes"/>
      <point x="-570" y="160"/>
      <point x="-504" y="226"/>
      <point x="-504" y="308" type="curve" smooth="yes"/>
      <point x="-504" y="390"/>
      <point x="-570" y="456"/>
      <point x="-652" y="456" type="curve" smooth="yes"/>
      <point x="-734" y="456"/>
      <point x="-800" y="390"/>
      <point x="-800" y="308" type="curve" smooth="yes"/>
      <point x="-800" y="226"/>
      <point x="-734" y="160"/>
    </contour>
    <contour>
      <point x="920" y="214" type="line"/>
      <point x="920" y="434" type="line"/>
      <point x="100" y="700" type="line"/>
      <point x="100" y="718" type="line"/>
      <point x="920" y="984" type="line"/>
      <point x="920" y="1204" type="line"/>
      <point x="-198" y="810" type="line"/>
      <point x="-198" y="608" type="line"/>
    </contour>
  </outline>
</glyph>
<glyph name="dollar_greater.liga" format="2">
  <advance width="1126"/>
  <outline>
    <contour>
      <point x="-426" y="156" type="line"/>
      <point x="-279" y="156"/>
      <point x="-168" y="213"/>
      <point x="-168" y="352" type="curve" smooth="yes"/>
      <point x="-168" y="439"/>
      <point x="-224" y="480"/>
      <point x="-285" y="511" type="curve" smooth="yes"/>
      <point x="-310" y="524"/>
      <point x="-340" y="538"/>
      <point x="-375" y="551" type="curve"/>
    </contour>
    <contour>
      <point x="-438" y="1155" type="line"/>
      <point x="-570" y="1155"/>
      <point x="-678" y="1099"/>
      <point x="-678" y="975" type="curve" smooth="yes"/>
      <point x="-678" y="929"/>
      <point x="-662" y="891"/>
      <point x="-631" y="862" type="curve" smooth="yes"/>
      <point x="-599" y="832"/>
      <point x="-552" y="805"/>
      <point x="-489" y="780" type="curve"/>
    </contour>
    <contour>
      <point x="-592" y="0" type="line"/>
      <point x="-690" y="0"/>
      <point x="-795" y="24"/>
      <point x="-874" y="45" type="curve"/>
      <point x="-874" y="211" type="line"/>
      <point x="-785" y="180"/>
      <point x="-687" y="156"/>
      <point x="-571" y="156" type="curve"/>
      <point x="-512" y="606" type="line"/>
      <point x="-642" y="656"/>
      <point x="-768" y="710"/>
      <point x="-833" y="825" type="curve" smooth="yes"/>
      <point x="-854" y="862"/>
      <point x="-864" y="905"/>
      <point x="-864" y="956" type="curve" smooth="yes"/>
      <point x="-864" y="1124"/>
      <point x="-748" y="1219"/>
      <point x="-618" y="1268" type="curve" smooth="yes"/>
      <point x="-562" y="1288"/>
      <point x="-495" y="1305"/>
      <point x="-418" y="1305" type="curve"/>
      <point x="-393" y="1495" type="line"/>
      <point x="-248" y="1495" type="line"/>
      <point x="-274" y="1302" type="line"/>
      <point x="848" y="545" type="line"/>
      <point x="176" y="-16" type="line"/>
      <point x="68" y="94" type="line"/>
      <point x="585" y="520" type="line"/>
      <point x="585" y="520"/>
      <point x="6" y="957"/>
      <point x="-298" y="1120" type="curve"/>
      <point x="-350" y="725" type="line"/>
      <point x="-216" y="673"/>
      <point x="-81" y="616"/>
      <point x="-13" y="498" type="curve" smooth="yes"/>
      <point x="8" y="460"/>
      <point x="19" y="415"/>
      <point x="19" y="362" type="curve" smooth="yes"/>
      <point x="19" y="173"/>
      <point x="-107" y="77"/>
      <point x="-257" y="32" type="curve" smooth="yes"/>
      <point x="-314" y="16"/>
      <point x="-377" y="0"/>
      <point x="-446" y="0" type="curve"/>
      <point x="-479" y="-236" type="line"/>
      <point x="-625" y="-236" type="line"/>
    </contour>
  </outline>
</glyph>
<glyph name="eightinferior" format="2">
  <advance width="1126"/>
  <outline>
    <contour>
      <point x="599" y="-20" type="curve" smooth="yes"/>
      <point x="774" y="-20"/>
      <point x="875" y="48"/>
      <point x="875" y="165" type="curve" smooth="yes"/>
      <point x="875" y="270"/>
      <point x="774" y="329"/>
      <point x="599" y="329" type="curve" smooth="yes"/>
      <point x="425" y="329"/>
      <point x="324" y="270"/>
      <point x="324" y="165" type="curve" smooth="yes"/>
      <point x="324" y="48"/>
      <point x="425" y="-20"/>
    </contour>
    <contour>
      <point x="599" y="98" type="curve" smooth="yes"/>
      <point x="546" y="98"/>
      <point x="516" y="128"/>
      <point x="516" y="182" type="curve" smooth="yes"/>
      <point x="516" y="233"/>
      <point x="546" y="263"/>
      <point x="599" y="263" type="curve" smooth="yes"/>
      <point x="653" y="263"/>
      <point x="683" y="233"/>
      <point x="683" y="182" type="curve" smooth="yes"/>
      <point x="683" y="128"/>
      <point x="653" y="98"/>
    </contour>
    <contour>
      <point x="529" y="304" type="line"/>
      <point x="671" y="304" type="line"/>
      <point x="671" y="348" type="line"/>
      <point x="529" y="348" type="line"/>
    </contour>
    <contour>
      <point x="599" y="381" type="curve" smooth="yes"/>
      <point x="557" y="381"/>
      <point x="533" y="405"/>
      <point x="533" y="445" type="curve" smooth="yes"/>
      <point x="533" y="485"/>
      <point x="557" y="508"/>
      <point x="599" y="508" type="curve" smooth="yes"/>
      <point x="642" y="508"/>
      <point x="666" y="485"/>
      <point x="666" y="445" type="curve" smooth="yes"/>
      <point x="666" y="405"/>
      <point x="642" y="381"/>
    </contour>
    <contour>
      <point x="599" y="321" type="curve" smooth="yes"/>
      <point x="763" y="321"/>
      <point x="858" y="377"/>
      <point x="858" y="473" type="curve" smooth="yes"/>
      <point x="858" y="570"/>
      <point x="763" y="626"/>
      <point x="599" y="626" type="curve" smooth="yes"/>
      <point x="436" y="626"/>
      <point x="341" y="570"/>
      <point x="341" y="473" type="curve" smooth="yes"/>
      <point x="341" y="377"/>
      <point x="436" y="321"/>
    </contour>
  </outline>
</glyph>
<glyph name="equal_colon_equal.liga" format="2">
  <advance width="1126"/>
  <outline>
    <contour>
      <point x="-600" y="964" type="curve" smooth="yes"/>
      <point x="-518" y="964"/>
      <point x="-452" y="1030"/>
      <point x="-452" y="1112" type="curve" smooth="yes"/>
      <point x="-452" y="1194"/>
      <point x="-518" y="1260"/>
      <point x="-600" y="1260" type="curve" smooth="yes"/>
      <point x="-682" y="1260"/>
      <point x="-748" y="1194"/>
      <point x="-748" y="1112" type="curve" smooth="yes"/>
      <point x="-748" y="1030"/>
      <point x="-682" y="964"/>
    </contour>
    <contour>
      <point x="-600" y="160" type="curve" smooth="yes"/>
      <point x="-518" y="160"/>
      <point x="-452" y="226"/>
      <point x="-452" y="308" type="curve" smooth="yes"/>
      <point x="-452" y="390"/>
      <point x="-518" y="456"/>
      <point x="-600" y="456" type="curve" smooth="yes"/>
      <point x="-682" y="456"/>
      <point x="-748" y="390"/>
      <point x="-748" y="308" type="curve" smooth="yes"/>
      <point x="-748" y="226"/>
      <point x="-682" y="160"/>
    </contour>
    <contour>
      <point x="-80" y="866" type="line"/>
      <point x="920" y="866" type="line"/>
      <point x="920" y="1052" type="line"/>
      <point x="-80" y="1052" type="line"/>
    </contour>
    <contour>
      <point x="-80" y="366" type="line"/>
      <point x="920" y="366" type="line"/>
      <point x="920" y="552" type="line"/>
      <point x="-80" y="552" type="line"/>
    </contour>
    <contour>
      <point x="-2120" y="866" type="line"/>
      <point x="-1120" y="866" type="line"/>
      <point x="-1120" y="1052" type="line"/>
      <point x="-2120" y="1052" type="line"/>
    </contour>
    <contour>
      <point x="-2120" y="366" type="line"/>
      <point x="-1120" y="366" type="line"/>
      <point x="-1120" y="552" type="line"/>
      <point x="-2120" y="552" type="line"/>
    </contour>
  </outline>
</glyph>
<glyph name="equal_equal.liga" format="2">
  <advance width="1126"/>
  <outline>
    <contour>
      <point x="852" y="445" type="line"/>
      <point x="852" y="298" type="line"/>
      <point x="-852" y="298" type="line"/>
      <point x="-852" y="445" type="line"/>
    </contour>
    <contour>
      <point x="852" y="793" type="line"/>
      <point x="852" y="646" type="line"/>
      <point x="-852" y="646" type="line"/>
      <point x="-852" y="793" type="line"/>
    </contour>
  </outline>
</glyph>
<glyph name="equal_equal_equal.liga" format="2">
  <advance width="1126"/>
  <outline>
    <contour>
      <point x="711" y="290" type="line"/>
      <point x="711" y="143" type="line"/>
      <point x="-1837" y="143" type="line"/>
      <point x="-1837" y="290" type="line"/>
    </contour>
    <contour>
      <point x="711" y="618" type="line"/>
      <point x="711" y="471" type="line"/>
      <point x="-1837" y="471" type="line"/>
      <point x="-1837" y="618" type="line"/>
    </contour>
    <contour>
      <point x="711" y="946" type="line"/>
      <point x="711" y="799" type="line"/>
      <point x="-1837" y="799" type="line"/>
      <point x="-1837" y="946" type="line"/>
    </contour>
  </outline>
</glyph>
<glyph name="equal_exclam_equal.liga" format="2">
  <advance width="1126"/>
  <outline>
    <contour>
      <point x="-698" y="456" type="line"/>
      <point x="-506" y="456" type="line"/>
      <point x="-496" y="1430" type="line"/>
      <point x="-704" y="1430" type="line"/>
    </contour>
    <contour>
      <point x="-600" y="-20" type="curve" smooth="yes"/>
      <point x="-518" y="-20"/>
      <point x="-452" y="46"/>
      <point x="-452" y="128" type="curve" smooth="yes"/>
      <point x="-452" y="210"/>
      <point x="-518" y="276"/>
      <point x="-600" y="276" type="curve" smooth="yes"/>
      <point x="-682" y="276"/>
      <point x="-748" y="210"/>
      <point x="-748" y="128" type="curve" smooth="yes"/>
      <point x="-748" y="46"/>
      <point x="-682" y="-20"/>
    </contour>
    <contour>
      <point x="-80" y="866" type="line"/>
      <point x="920" y="866" type="line"/>
      <point x="920" y="1052" type="line"/>
      <point x="-80" y="1052" type="line"/>
    </contour>
    <contour>
      <point x="-80" y="366" type="line"/>
      <point x="920" y="366" type="line"/>
      <point x="920" y="552" type="line"/>
      <point x="-80" y="552" type="line"/>
    </contour>
    <contour>
      <point x="-2120" y="866" type="line"/>
      <point x="-1120" y="866" type="line"/>
      <point x="-1120" y="1052" type="line"/>
      <point x="-2120" y="1052" type="line"/>
    </contour>
    <contour>
      <point x="-2120" y="366" type="line"/>
      <point x="-1120" y="366" type="line"/>
      <point x="-1120" y="552" type="line"/>
      <point x="-2120" y="552" type="line"/>
    </contour>
  </outline>
</glyph>
<glyph name="equal_greater.liga" format="2">
  <advance width="1126"/>
  <outline>
    <contour>
      <point x="68" y="995" type="line"/>
      <point x="176" y="1106" type="line"/>
      <point x="848" y="545" type="line"/>
      <point x="176" y="-16" type="line"/>
      <point x="68" y="94" type="line"/>
      <point x="316" y="298" type="line"/>
      <point x="-852" y="298" type="line"/>
      <point x="-852" y="445" type="line"/>
      <point x="494" y="445" type="line"/>
      <point x="613" y="543" type="line"/>
      <point x="489" y="646" type="line"/>
      <point x="-852" y="646" type="line"/>
      <point x="-852" y="793" type="line"/>
      <point x="312" y="793" type="line"/>
    </contour>
  </outline>
</glyph>
<glyph name="equal_greater_greater.liga" format="2">
  <advance width="1126"/>
  <outline>
    <contour>
      <point x="-354" y="995" type="line"/>
      <point x="-246" y="1106" type="line"/>
      <point x="426" y="545" type="line"/>
      <point x="-246" y="-16" type="line"/>
      <point x="-354" y="94" type="line"/>
      <point x="-106" y="298" type="line"/>
      <point x="-2119" y="298" type="line"/>
      <point x="-2119" y="445" type="line"/>
      <point x="72" y="445" type="line"/>
      <point x="191" y="543" type="line"/>
      <point x="67" y="646" type="line"/>
      <point x="-2119" y="646" type="line"/>
      <point x="-2119" y="793" type="line"/>
      <point x="-110" y="793" type="line"/>
    </contour>
    <contour>
      <point x="209" y="995" type="line"/>
      <point x="317" y="1106" type="line"/>
      <point x="989" y="545" type="line"/>
      <point x="317" y="-16" type="line"/>
      <point x="209" y="94" type="line"/>
      <point x="754" y="543" type="line"/>
    </contour>
  </outline>
</glyph>
<glyph name="equal_less_less.liga" format="2">
  <advance width="1126"/>
  <outline>
    <contour>
      <point x="355" y="94" type="line"/>
      <point x="246" y="-16" type="line"/>
      <point x="-130" y="298" type="line"/>
      <point x="-2119" y="298" type="line"/>
      <point x="-2119" y="445" type="line"/>
      <point x="-306" y="445" type="line"/>
      <point x="-426" y="545" type="line"/>
      <point x="-305" y="646" type="line"/>
      <point x="-2119" y="646" type="line"/>
      <point x="-2119" y="793" type="line"/>
      <point x="-129" y="793" type="line"/>
      <point x="246" y="1106" type="line"/>
      <point x="355" y="995" type="line"/>
      <point x="-190" y="547" type="line"/>
    </contour>
    <contour>
      <point x="918" y="94" type="line"/>
      <point x="809" y="-16" type="line"/>
      <point x="137" y="545" type="line"/>
      <point x="809" y="1106" type="line"/>
      <point x="918" y="995" type="line"/>
      <point x="373" y="547" type="line"/>
    </contour>
  </outline>
</glyph>
<glyph name="equal_slash_equal.liga" format="2">
  <advance width="1126"/>
  <outline>
    <contour>
      <point x="993" y="445" type="line"/>
      <point x="993" y="298" type="line"/>
      <point x="-629" y="298" type="line"/>
      <point x="-845" y="-215" type="line"/>
      <point x="-1011" y="-215" type="line"/>
      <point x="-795" y="298" type="line"/>
      <point x="-2119" y="298" type="line"/>
      <point x="-2119" y="445" type="line"/>
      <point x="-733" y="445" type="line"/>
      <point x="-648" y="646" type="line"/>
      <point x="-2119" y="646" type="line"/>
      <point x="-2119" y="793" type="line"/>
      <point x="-586" y="793" type="line"/>
      <point x="-325" y="1413" type="line"/>
      <point x="-159" y="1413" type="line"/>
      <point x="-420" y="793" type="line"/>
      <point x="993" y="793" type="line"/>
      <point x="993" y="646" type="line"/>
      <point x="-482" y="646" type="line"/>
      <point x="-567" y="445" type="line"/>
    </contour>
  </outline>
</glyph>
<glyph name="exclam_equal.liga" format="2">
  <advance width="1126"/>
  <outline>
    <contour>
      <point x="-170" y="445" type="line"/>
      <point x="-85" y="646" type="line"/>
      <point x="-852" y="646" type="line"/>
      <point x="-852" y="793" type="line"/>
      <point x="-23" y="793" type="line"/>
      <point x="193" y="1306" type="line"/>
      <point x="359" y="1306" type="line"/>
      <point x="143" y="793" type="line"/>
      <point x="852" y="793" type="line"/>
      <point x="852" y="646" type="line"/>
      <point x="81" y="646" type="line"/>
      <point x="-4" y="445" type="line"/>
      <point x="852" y="445" type="line"/>
      <point x="852" y="298" type="line"/>
      <point x="-66" y="298" type="line"/>
      <point x="-282" y="-215" type="line"/>
      <point x="-448" y="-215" type="line"/>
      <point x="-232" y="298" type="line"/>
      <point x="-852" y="298" type="line"/>
      <point x="-852" y="445" type="line"/>
    </contour>
  </outline>
</glyph>
<glyph name="exclam_equal_equal.liga" format="2">
  <advance width="1126"/>
  <outline>
    <contour>
      <point x="993" y="946" type="line"/>
      <point x="993" y="799" type="line"/>
      <point x="-418" y="799" type="line"/>
      <point x="-494" y="618" type="line"/>
      <point x="993" y="618" type="line"/>
      <point x="993" y="471" type="line"/>
      <point x="-556" y="471" type="line"/>
      <point x="-632" y="290" type="line"/>
      <point x="993" y="290" type="line"/>
      <point x="993" y="143" type="line"/>
      <point x="-694" y="143" type="line"/>
      <point x="-845" y="-215" type="line"/>
      <point x="-1011" y="-215" type="line"/>
      <point x="-860" y="143" type="line"/>
      <point x="-2119" y="143" type="line"/>
      <point x="-2119" y="290" type="line"/>
      <point x="-798" y="290" type="line"/>
      <point x="-722" y="471" type="line"/>
      <point x="-2119" y="471" type="line"/>
      <point x="-2119" y="618" type="line"/>
      <point x="-660" y="618" type="line"/>
      <point x="-584" y="799" type="line"/>
      <point x="-2119" y="799" type="line"/>
      <point x="-2119" y="946" type="line"/>
      <point x="-522" y="946" type="line"/>
      <point x="-325" y="1413" type="line"/>
      <point x="-159" y="1413" type="line"/>
      <point x="-356" y="946" type="line"/>
    </contour>
  </outline>
</glyph>
<glyph name="exclam_exclam.liga" format="2">
  <advance width="1126"/>
  <outline>
    <contour>
      <point x="384" y="1413" type="line"/>
      <point x="357" y="383" type="line"/>
      <point x="203" y="383" type="line"/>
      <point x="173" y="1413" type="line"/>
    </contour>
    <contour>
      <point x="146" y="113" type="curve" smooth="yes"/>
      <point x="146" y="189"/>
      <point x="203" y="246"/>
      <point x="279" y="246" type="curve" smooth="yes"/>
      <point x="354" y="246"/>
      <point x="410" y="188"/>
      <point x="410" y="113" type="curve" smooth="yes"/>
      <point x="410" y="38"/>
      <point x="354" y="-18"/>
      <point x="279" y="-18" type="curve" smooth="yes"/>
      <point x="204" y="-18"/>
      <point x="146" y="38"/>
    </contour>
    <contour>
      <point x="-179" y="1413" type="line"/>
      <point x="-206" y="383" type="line"/>
      <point x="-360" y="383" type="line"/>
      <point x="-390" y="1413" type="line"/>
    </contour>
    <contour>
      <point x="-417" y="113" type="curve" smooth="yes"/>
      <point x="-417" y="189"/>
      <point x="-360" y="246"/>
      <point x="-284" y="246" type="curve" smooth="yes"/>
      <point x="-209" y="246"/>
      <point x="-153" y="188"/>
      <point x="-153" y="113" type="curve" smooth="yes"/>
      <point x="-153" y="38"/>
      <point x="-209" y="-18"/>
      <point x="-284" y="-18" type="curve" smooth="yes"/>
      <point x="-359" y="-18"/>
      <point x="-417" y="38"/>
    </contour>
  </outline>
</glyph>
<glyph name="exclam_exclam_period.liga" format="2">
  <advance width="1126"/>
  <outline>
    <contour>
      <point x="-7" y="315" type="curve" smooth="yes"/>
      <point x="71" y="315"/>
      <point x="122" y="268"/>
      <point x="146" y="212" type="curve" smooth="yes"/>
      <point x="155" y="192"/>
      <point x="159" y="170"/>
      <point x="159" y="147" type="curve" smooth="yes"/>
      <point x="159" y="52"/>
      <point x="88" y="-18"/>
      <point x="-7" y="-18" type="curve" smooth="yes"/>
      <point x="-84" y="-18"/>
      <point x="-136" y="28"/>
      <point x="-160" y="83" type="curve" smooth="yes"/>
      <point x="-169" y="103"/>
      <point x="-173" y="124"/>
      <point x="-173" y="147" type="curve" smooth="yes"/>
      <point x="-173" y="224"/>
      <point x="-127" y="278"/>
      <point x="-72" y="302" type="curve" smooth="yes"/>
      <point x="-52" y="311"/>
      <point x="-30" y="315"/>
    </contour>
    <contour>
      <point x="-460" y="1413" type="line"/>
      <point x="-487" y="383" type="line"/>
      <point x="-641" y="383" type="line"/>
      <point x="-671" y="1413" type="line"/>
    </contour>
    <contour>
      <point x="-698" y="113" type="curve" smooth="yes"/>
      <point x="-698" y="189"/>
      <point x="-639" y="246"/>
      <point x="-563" y="246" type="curve" smooth="yes"/>
      <point x="-488" y="246"/>
      <point x="-434" y="188"/>
      <point x="-434" y="113" type="curve" smooth="yes"/>
      <point x="-434" y="38"/>
      <point x="-488" y="-18"/>
      <point x="-563" y="-18" type="curve" smooth="yes"/>
      <point x="-638" y="-18"/>
      <point x="-698" y="38"/>
    </contour>
    <contour>
      <point x="-1023" y="1413" type="line"/>
      <point x="-1050" y="383" type="line"/>
      <point x="-1204" y="383" type="line"/>
      <point x="-1234" y="1413" type="line"/>
    </contour>
    <contour>
      <point x="-1261" y="113" type="curve" smooth="yes"/>
      <point x="-1261" y="189"/>
      <point x="-1204" y="246"/>
      <point x="-1128" y="246" type="curve" smooth="yes"/>
      <point x="-1053" y="246"/>
      <point x="-997" y="188"/>
      <point x="-997" y="113" type="curve" smooth="yes"/>
      <point x="-997" y="38"/>
      <point x="-1053" y="-18"/>
      <point x="-1128" y="-18" type="curve" smooth="yes"/>
      <point x="-1203" y="-18"/>
      <point x="-1261" y="38"/>
    </contour>
  </outline>
</glyph>
<glyph name="five.dnom" format="2">
  <advance width="1126"/>
  <outline>
    <contour>
      <point x="535" y="477" type="line" smooth="yes"/>
      <point x="723" y="477"/>
      <point x="866" y="437"/>
      <point x="866" y="248" type="curve" smooth="yes"/>
      <point x="866" y="51"/>
      <point x="678" y="-16"/>
      <point x="479" y="-16" type="curve" smooth="yes"/>
      <point x="419" y="-16"/>
      <point x="351" y="-7"/>
      <point x="293" y="2" type="curve"/>
      <point x="293" y="147" type="line"/>
      <point x="354" y="136"/>
      <point x="418" y="125"/>
      <point x="487" y="125" type="curve" smooth="yes"/>
      <point x="594" y="125"/>
      <point x="688" y="149"/>
      <point x="688" y="240" type="curve" smooth="yes"/>
      <point x="688" y="339"/>
      <point x="586" y="342"/>
      <point x="483" y="342" type="curve" smooth="yes"/>
      <point x="309" y="342" type="line"/>
      <point x="309" y="782" type="line"/>
      <point x="823" y="782" type="line"/>
      <point x="823" y="629" type="line"/>
      <point x="465" y="629" type="line"/>
      <point x="465" y="477" type="line"/>
    </contour>
  </outline>
</glyph>
<glyph name="five.numr" format="2">
  <advance width="1126"/>
  <outline>
    <contour>
      <point x="535" y="1108" type="line" smooth="yes"/>
      <point x="723" y="1108"/>
      <point x="866" y="1068"/>
      <point x="866" y="879" type="curve" smooth="yes"/>
      <point x="866" y="682"/>
      <point x="678" y="615"/>
      <point x="479" y="615" type="curve" smooth="yes"/>
      <point x="419" y="615"/>
      <point x="351" y="624"/>
      <point x="293" y="633" type="curve"/>
      <point x="293" y="778" type="line"/>
      <point x="354" y="767"/>
      <point x="418" y="756"/>
      <point x="487" y="756" type="curve" smooth="yes"/>
      <point x="594" y="756"/>
      <point x="688" y="780"/>
      <point x="688" y="871" type="curve" smooth="yes"/>
      <point x="688" y="970"/>
      <point x="586" y="973"/>
      <point x="483" y="973" type="curve" smooth="yes"/>
      <point x="309" y="973" type="line"/>
      <point x="309" y="1413" type="line"/>
      <point x="823" y="1413" type="line"/>
      <point x="823" y="1260" type="line"/>
      <point x="465" y="1260" type="line"/>
      <point x="465" y="1108" type="line"/>
    </contour>
  </outline>
</glyph>
<glyph name="fiveinferior" format="2">
  <advance width="1126"/>
  <outline>
    <contour>
      <point x="602" y="-20" type="curve" smooth="yes"/>
      <point x="775" y="-20"/>
      <point x="874" y="60"/>
      <point x="874" y="199" type="curve" smooth="yes"/>
      <point x="874" y="312"/>
      <point x="788" y="377"/>
      <point x="637" y="377" type="curve" smooth="yes"/>
      <point x="587" y="377"/>
      <point x="537" y="365"/>
      <point x="498" y="345" type="curve"/>
      <point x="490" y="233" type="line"/>
      <point x="521" y="252"/>
      <point x="556" y="261"/>
      <point x="592" y="261" type="curve" smooth="yes"/>
      <point x="653" y="261"/>
      <point x="688" y="237"/>
      <point x="688" y="194" type="curve" smooth="yes"/>
      <point x="688" y="150"/>
      <point x="657" y="124"/>
      <point x="603" y="124" type="curve" smooth="yes"/>
      <point x="554" y="124"/>
      <point x="527" y="142"/>
      <point x="527" y="174" type="curve"/>
      <point x="336" y="174" type="line"/>
      <point x="336" y="51"/>
      <point x="433" y="-20"/>
    </contour>
    <contour>
      <point x="362" y="233" type="line"/>
      <point x="490" y="233" type="line"/>
      <point x="541" y="326" type="line"/>
      <point x="555" y="607" type="line"/>
      <point x="371" y="607" type="line"/>
    </contour>
    <contour>
      <point x="482" y="467" type="line"/>
      <point x="836" y="467" type="line"/>
      <point x="836" y="607" type="line"/>
      <point x="474" y="607" type="line"/>
    </contour>
  </outline>
</glyph>
<glyph name="fivesuperior" format="2">
  <advance width="1126"/>
  <outline>
    <contour>
      <point x="535" y="1108" type="line" smooth="yes"/>
      <point x="611" y="1108"/>
      <point x="723" y="1089"/>
      <point x="817" y="1041"/>
      <point x="866" y="948"/>
      <point x="866" y="879" type="qcurve" smooth="yes"/>
      <point x="866" y="808"/>
      <point x="802" y="702"/>
      <point x="691" y="643"/>
      <point x="557" y="615"/>
      <point x="479" y="615" type="qcurve" smooth="yes"/>
      <point x="409" y="615"/>
      <point x="293" y="633" type="qcurve"/>
      <point x="293" y="778" type="line"/>
      <point x="415" y="756"/>
      <point x="487" y="756" type="qcurve" smooth="yes"/>
      <point x="688" y="756"/>
      <point x="688" y="871" type="qcurve" smooth="yes"/>
      <point x="688" y="906"/>
      <point x="656" y="950"/>
      <point x="588" y="968"/>
      <point x="532" y="973"/>
      <point x="483" y="973" type="qcurve" smooth="yes"/>
      <point x="309" y="973" type="line"/>
      <point x="309" y="1413" type="line"/>
      <point x="823" y="1413" type="line"/>
      <point x="823" y="1260" type="line"/>
      <point x="465" y="1260" type="line"/>
      <point x="465" y="1108" type="line"/>
    </contour>
  </outline>
</glyph>
<glyph name="fourinferior" format="2">
  <advance width="1126"/>
  <outline>
    <contour>
      <point x="321" y="106" type="line"/>
      <point x="485" y="106" type="line"/>
      <point x="563" y="585" type="line"/>
      <point x="399" y="585" type="line"/>
    </contour>
    <contour>
      <point x="320" y="106" type="line"/>
      <point x="650" y="106" type="line"/>
      <point x="650" y="246" type="line"/>
      <point x="382" y="246" type="line"/>
    </contour>
    <contour>
      <point x="788" y="106" type="line"/>
      <point x="866" y="106" type="line"/>
      <point x="866" y="246" type="line"/>
      <point x="788" y="246" type="line"/>
    </contour>
    <contour>
      <point x="641" y="0" type="line"/>
      <point x="797" y="0" type="line"/>
      <point x="797" y="618" type="line"/>
      <point x="641" y="618" type="line"/>
    </contour>
  </outline>
</glyph>
<glyph name="greater_colon.liga" format="2">
  <advance width="1126"/>
  <outline>
    <contour>
      <point x="422" y="1022" type="curve" smooth="yes"/>
      <point x="493" y="1022"/>
      <point x="542" y="977"/>
      <point x="564" y="927" type="curve" smooth="yes"/>
      <point x="572" y="908"/>
      <point x="576" y="889"/>
      <point x="576" y="868" type="curve" smooth="yes"/>
      <point x="576" y="781"/>
      <point x="509" y="715"/>
      <point x="422" y="715" type="curve" smooth="yes"/>
      <point x="334" y="715"/>
      <point x="269" y="781"/>
      <point x="269" y="868" type="curve" smooth="yes"/>
      <point x="269" y="939"/>
      <point x="312" y="987"/>
      <point x="362" y="1010" type="curve" smooth="yes"/>
      <point x="380" y="1018"/>
      <point x="401" y="1022"/>
    </contour>
    <contour>
      <point x="422" y="289" type="curve" smooth="yes"/>
      <point x="493" y="289"/>
      <point x="542" y="244"/>
      <point x="564" y="194" type="curve" smooth="yes"/>
      <point x="572" y="175"/>
      <point x="576" y="156"/>
      <point x="576" y="135" type="curve" smooth="yes"/>
      <point x="576" y="48"/>
      <point x="509" y="-18"/>
      <point x="422" y="-18" type="curve" smooth="yes"/>
      <point x="334" y="-18"/>
      <point x="269" y="48"/>
      <point x="269" y="135" type="curve" smooth="yes"/>
      <point x="269" y="206"/>
      <point x="312" y="253"/>
      <point x="362" y="276" type="curve" smooth="yes"/>
      <point x="380" y="284"/>
      <point x="401" y="289"/>
    </contour>
    <contour>
      <point x="-969" y="985" type="line"/>
      <point x="-881" y="1106" type="line"/>
      <point x="141" y="545" type="line"/>
      <point x="-881" y="-16" type="line"/>
      <point x="-969" y="104" type="line"/>
      <point x="-174" y="543" type="line"/>
    </contour>
  </outline>
</glyph>
<glyph name="greater_greater.liga" format="2">
  <advance width="1126"/>
  <outline>
    <contour>
      <point x="-967" y="985" type="line"/>
      <point x="-879" y="1106" type="line"/>
      <point x="143" y="545" type="line"/>
      <point x="-879" y="-16" type="line"/>
      <point x="-967" y="104" type="line"/>
      <point x="-172" y="543" type="line"/>
    </contour>
    <contour>
      <point x="-141" y="985" type="line"/>
      <point x="-53" y="1106" type="line"/>
      <point x="969" y="545" type="line"/>
      <point x="-53" y="-16" type="line"/>
      <point x="-141" y="104" type="line"/>
      <point x="654" y="543" type="line"/>
    </contour>
  </outline>
</glyph>
<glyph name="greater_greater_equal.liga" format="2">
  <advance width="1126"/>
  <outline>
    <contour>
      <point x="-2043" y="995" type="line"/>
      <point x="-1935" y="1106" type="line"/>
      <point x="-1263" y="545" type="line"/>
      <point x="-1935" y="-16" type="line"/>
      <point x="-2043" y="94" type="line"/>
      <point x="-1498" y="543" type="line"/>
    </contour>
    <contour>
      <point x="-1480" y="995" type="line"/>
      <point x="-1372" y="1106" type="line"/>
      <point x="-997" y="793" type="line"/>
      <point x="993" y="793" type="line"/>
      <point x="993" y="646" type="line"/>
      <point x="-821" y="646" type="line"/>
      <point x="-700" y="545" type="line"/>
      <point x="-820" y="445" type="line"/>
      <point x="993" y="445" type="line"/>
      <point x="993" y="298" type="line"/>
      <point x="-996" y="298" type="line"/>
      <point x="-1372" y="-16" type="line"/>
      <point x="-1480" y="94" type="line"/>
      <point x="-935" y="543" type="line"/>
    </contour>
  </outline>
</glyph>
<glyph name="greater_greater_greater.liga" format="2">
  <advance width="1126"/>
  <outline>
    <contour>
      <point x="-291" y="985" type="line"/>
      <point x="-203" y="1106" type="line"/>
      <point x="819" y="545" type="line"/>
      <point x="-203" y="-16" type="line"/>
      <point x="-291" y="104" type="line"/>
      <point x="504" y="543" type="line"/>
    </contour>
    <contour>
      <point x="-1943" y="985" type="line"/>
      <point x="-1855" y="1106" type="line"/>
      <point x="-833" y="545" type="line"/>
      <point x="-1855" y="-16" type="line"/>
      <point x="-1943" y="104" type="line"/>
      <point x="-1148" y="543" type="line"/>
    </contour>
    <contour>
      <point x="-1117" y="985" type="line"/>
      <point x="-1029" y="1106" type="line"/>
      <point x="-7" y="545" type="line"/>
      <point x="-1029" y="-16" type="line"/>
      <point x="-1117" y="104" type="line"/>
      <point x="-322" y="543" type="line"/>
    </contour>
  </outline>
</glyph>
<glyph name="greater_greater_hyphen.liga" format="2">
  <advance width="1126"/>
  <outline>
    <contour>
      <point x="-1761" y="995" type="line"/>
      <point x="-1653" y="1106" type="line"/>
      <point x="-981" y="545" type="line"/>
      <point x="-1653" y="-16" type="line"/>
      <point x="-1761" y="94" type="line"/>
      <point x="-1216" y="543" type="line"/>
    </contour>
    <contour>
      <point x="-1198" y="995" type="line"/>
      <point x="-1090" y="1106" type="line"/>
      <point x="-516" y="627" type="line"/>
      <point x="580" y="627" type="line"/>
      <point x="580" y="463" type="line"/>
      <point x="-516" y="463" type="line"/>
      <point x="-1090" y="-16" type="line"/>
      <point x="-1198" y="94" type="line"/>
      <point x="-653" y="543" type="line"/>
    </contour>
  </outline>
</glyph>
<glyph name="greater_hyphen.liga" format="2">
  <advance width="1126"/>
  <outline>
    <contour>
      <point x="-776" y="995" type="line"/>
      <point x="-668" y="1106" type="line"/>
      <point x="-94" y="627" type="line"/>
      <point x="721" y="627" type="line"/>
      <point x="721" y="463" type="line"/>
      <point x="-94" y="463" type="line"/>
      <point x="-668" y="-16" type="line"/>
      <point x="-776" y="94" type="line"/>
      <point x="-231" y="543" type="line"/>
    </contour>
  </outline>
</glyph>
<glyph name="hyphen_asciitilde.liga" format="2">
  <advance width="1126"/>
  <outline>
    <contour>
      <point x="1061" y="696" type="line"/>
      <point x="1061" y="495"/>
      <point x="977" y="343"/>
      <point x="779" y="343" type="curve" smooth="yes"/>
      <point x="700" y="343"/>
      <point x="646" y="372"/>
      <point x="599" y="408" type="curve" smooth="yes"/>
      <point x="551" y="444"/>
      <point x="509" y="490"/>
      <point x="467" y="530" type="curve" smooth="yes"/>
      <point x="435" y="561"/>
      <point x="398" y="595"/>
      <point x="343" y="595" type="curve" smooth="yes"/>
      <point x="301" y="595"/>
      <point x="280" y="581"/>
      <point x="248" y="565" type="curve" smooth="yes"/>
      <point x="178" y="529"/>
      <point x="64" y="463"/>
      <point x="-29" y="463" type="curve" smooth="yes"/>
      <point x="-862" y="463" type="line"/>
      <point x="-862" y="627" type="line"/>
      <point x="-59" y="627" type="line" smooth="yes"/>
      <point x="75" y="627"/>
      <point x="130" y="687"/>
      <point x="225" y="727" type="curve" smooth="yes"/>
      <point x="262" y="743"/>
      <point x="302" y="753"/>
      <point x="349" y="753" type="curve" smooth="yes"/>
      <point x="428" y="753"/>
      <point x="482" y="724"/>
      <point x="529" y="688" type="curve" smooth="yes"/>
      <point x="577" y="652"/>
      <point x="619" y="606"/>
      <point x="661" y="566" type="curve" smooth="yes"/>
      <point x="693" y="535"/>
      <point x="730" y="501"/>
      <point x="785" y="501" type="curve" smooth="yes"/>
      <point x="880" y="501"/>
      <point x="901" y="587"/>
      <point x="901" y="696" type="curve"/>
    </contour>
  </outline>
</glyph>
<glyph name="hyphen_bar.liga" format="2">
  <advance width="1126"/>
  <outline>
    <contour>
      <point x="580" y="-310" type="line"/>
      <point x="780" y="-310" type="line"/>
      <point x="780" y="1730" type="line"/>
      <point x="580" y="1730" type="line"/>
    </contour>
    <contour>
      <point x="-920" y="616" type="line"/>
      <point x="640" y="616" type="line"/>
      <point x="640" y="802" type="line"/>
      <point x="-920" y="802" type="line"/>
    </contour>
  </outline>
</glyph>
<glyph name="hyphen_greater.liga" format="2">
  <advance width="1126"/>
  <outline>
    <contour>
      <point x="68" y="995" type="line"/>
      <point x="176" y="1106" type="line"/>
      <point x="848" y="545" type="line"/>
      <point x="176" y="-16" type="line"/>
      <point x="68" y="94" type="line"/>
      <point x="516" y="463" type="line"/>
      <point x="-721" y="463" type="line"/>
      <point x="-721" y="627" type="line"/>
      <point x="512" y="627" type="line"/>
    </contour>
  </outline>
</glyph>
<glyph name="hyphen_hyphen.liga" format="2">
  <advance width="1126"/>
  <outline>
    <contour>
      <point x="721" y="463" type="line"/>
      <point x="123" y="463" type="line"/>
      <point x="123" y="627" type="line"/>
      <point x="721" y="627" type="line"/>
    </contour>
    <contour>
      <point x="-123" y="463" type="line"/>
      <point x="-721" y="463" type="line"/>
      <point x="-721" y="627" type="line"/>
      <point x="-123" y="627" type="line"/>
    </contour>
  </outline>
</glyph>
<glyph name="hyphen_hyphen_greater.liga" format="2">
  <advance width="1200"/>
  <outline>
    <contour>
      <point x="955" y="626" type="line"/>
      <point x="411" y="17" type="line"/>
      <point x="287" y="123" type="line"/>
      <point x="572" y="437" type="line" smooth="yes"/>
      <point x="608" y="476"/>
      <point x="668" y="531"/>
      <point x="701" y="552" type="qcurve"/>
      <point x="-2151" y="552" type="line"/>
      <point x="-2151" y="700" type="line"/>
      <point x="700" y="700" type="line"/>
      <point x="661" y="725"/>
      <point x="620" y="763"/>
      <point x="572" y="815" type="qcurve" smooth="yes"/>
      <point x="287" y="1129" type="line"/>
      <point x="411" y="1235" type="line"/>
    </contour>
  </outline>
</glyph>
<glyph name="hyphen_hyphen_hyphen.liga" format="2">
  <advance width="1126"/>
  <outline>
    <contour>
      <point x="-1090" y="463" type="line"/>
      <point x="-1688" y="463" type="line"/>
      <point x="-1688" y="627" type="line"/>
      <point x="-1090" y="627" type="line"/>
    </contour>
    <contour>
      <point x="562" y="463" type="line"/>
      <point x="-36" y="463" type="line"/>
      <point x="-36" y="627" type="line"/>
      <point x="562" y="627" type="line"/>
    </contour>
    <contour>
      <point x="-264" y="463" type="line"/>
      <point x="-862" y="463" type="line"/>
      <point x="-862" y="627" type="line"/>
      <point x="-264" y="627" type="line"/>
    </contour>
  </outline>
</glyph>
<glyph name="hyphen_less_less.liga" format="2">
  <advance width="1126"/>
  <outline>
    <contour>
      <point x="355" y="94" type="line"/>
      <point x="246" y="-16" type="line"/>
      <point x="-328" y="463" type="line"/>
      <point x="-1988" y="463" type="line"/>
      <point x="-1988" y="627" type="line"/>
      <point x="-328" y="627" type="line"/>
      <point x="246" y="1106" type="line"/>
      <point x="355" y="995" type="line"/>
      <point x="-190" y="547" type="line"/>
    </contour>
    <contour>
      <point x="918" y="94" type="line"/>
      <point x="809" y="-16" type="line"/>
      <point x="137" y="545" type="line"/>
      <point x="809" y="1106" type="line"/>
      <point x="918" y="995" type="line"/>
      <point x="373" y="547" type="line"/>
    </contour>
  </outline>
</glyph>
<glyph name="less_asciitilde.liga" format="2">
  <advance width="1126"/>
  <outline>
    <contour>
      <point x="1061" y="696" type="line"/>
      <point x="1061" y="495"/>
      <point x="977" y="343"/>
      <point x="779" y="343" type="curve" smooth="yes"/>
      <point x="700" y="343"/>
      <point x="646" y="372"/>
      <point x="599" y="408" type="curve" smooth="yes"/>
      <point x="551" y="444"/>
      <point x="509" y="490"/>
      <point x="467" y="530" type="curve" smooth="yes"/>
      <point x="435" y="561"/>
      <point x="398" y="595"/>
      <point x="343" y="595" type="curve" smooth="yes"/>
      <point x="288" y="595"/>
      <point x="250" y="561"/>
      <point x="218" y="530" type="curve" smooth="yes"/>
      <point x="154" y="469"/>
      <point x="95" y="398"/>
      <point x="6" y="361" type="curve" smooth="yes"/>
      <point x="-23" y="349"/>
      <point x="-62" y="343"/>
      <point x="-99" y="343" type="curve" smooth="yes"/>
      <point x="-224" y="343"/>
      <point x="-279" y="412"/>
      <point x="-355" y="459" type="curve" smooth="yes"/>
      <point x="-399" y="486"/>
      <point x="-478" y="486"/>
      <point x="-547" y="486" type="curve" smooth="yes"/>
      <point x="-615" y="486"/>
      <point x="-672" y="479"/>
      <point x="-672" y="479" type="curve"/>
      <point x="-209" y="95" type="line"/>
      <point x="-317" y="-16" type="line"/>
      <point x="-989" y="545" type="line"/>
      <point x="-317" y="1106" type="line"/>
      <point x="-209" y="996" type="line"/>
      <point x="-640" y="641" type="line"/>
      <point x="-640" y="641"/>
      <point x="-573" y="648"/>
      <point x="-500" y="648" type="curve" smooth="yes"/>
      <point x="-483" y="648"/>
      <point x="-466" y="648"/>
      <point x="-449" y="648" type="curve" smooth="yes"/>
      <point x="-342" y="648"/>
      <point x="-279" y="612"/>
      <point x="-223" y="566" type="curve" smooth="yes"/>
      <point x="-186" y="537"/>
      <point x="-157" y="501"/>
      <point x="-99" y="501" type="curve" smooth="yes"/>
      <point x="-44" y="501"/>
      <point x="-6" y="535"/>
      <point x="26" y="566" type="curve" smooth="yes"/>
      <point x="90" y="627"/>
      <point x="149" y="698"/>
      <point x="238" y="735" type="curve" smooth="yes"/>
      <point x="267" y="747"/>
      <point x="306" y="753"/>
      <point x="343" y="753" type="curve" smooth="yes"/>
      <point x="425" y="753"/>
      <point x="481" y="725"/>
      <point x="529" y="688" type="curve" smooth="yes"/>
      <point x="577" y="652"/>
      <point x="619" y="606"/>
      <point x="661" y="566" type="curve" smooth="yes"/>
      <point x="693" y="535"/>
      <point x="730" y="501"/>
      <point x="785" y="501" type="curve" smooth="yes"/>
      <point x="880" y="501"/>
      <point x="901" y="587"/>
      <point x="901" y="696" type="curve"/>
    </contour>
  </outline>
</glyph>
<glyph name="less_asciitilde_asciitilde.liga" format="2">
  <advance width="1126"/>
  <outline>
    <contour>
      <point x="778" y="696" type="line"/>
      <point x="778" y="482"/>
      <point x="669" y="344"/>
      <point x="454" y="344" type="curve" smooth="yes"/>
      <point x="239" y="344"/>
      <point x="168" y="505"/>
      <point x="28" y="578" type="curve" smooth="yes"/>
      <point x="5" y="590"/>
      <point x="-12" y="596"/>
      <point x="-38" y="596" type="curve" smooth="yes"/>
      <point x="-95" y="596"/>
      <point x="-138" y="561"/>
      <point x="-174" y="531" type="curve" smooth="yes"/>
      <point x="-248" y="470"/>
      <point x="-317" y="397"/>
      <point x="-417" y="362" type="curve" smooth="yes"/>
      <point x="-451" y="350"/>
      <point x="-484" y="344"/>
      <point x="-526" y="344" type="curve" smooth="yes"/>
      <point x="-702" y="344"/>
      <point x="-789" y="451"/>
      <point x="-886" y="531" type="curve" smooth="yes"/>
      <point x="-924" y="562"/>
      <point x="-966" y="595"/>
      <point x="-1028" y="595" type="curve" smooth="yes"/>
      <point x="-1085" y="595"/>
      <point x="-1131" y="559"/>
      <point x="-1171" y="538" type="curve" smooth="yes"/>
      <point x="-1250" y="496"/>
      <point x="-1307" y="456"/>
      <point x="-1407" y="448" type="curve" smooth="yes"/>
      <point x="-1408.94" y="447.871"/>
      <point x="-1411.14" y="447.808"/>
      <point x="-1413.59" y="447.808" type="curve" smooth="yes"/>
      <point x="-1430.06" y="447.808"/>
      <point x="-1457.39" y="450.646"/>
      <point x="-1487" y="455" type="curve"/>
      <point x="-1052" y="94" type="line"/>
      <point x="-1161" y="-16" type="line"/>
      <point x="-1833" y="545" type="line"/>
      <point x="-1161" y="1106" type="line"/>
      <point x="-1052" y="995" type="line"/>
      <point x="-1507" y="621" type="line"/>
      <point x="-1473.81" y="617.839"/>
      <point x="-1434.38" y="612.806"/>
      <point x="-1405.48" y="612.806" type="curve" smooth="yes"/>
      <point x="-1397.81" y="612.806"/>
      <point x="-1390.88" y="613.161"/>
      <point x="-1385" y="614" type="curve" smooth="yes"/>
      <point x="-1289" y="627"/>
      <point x="-1198" y="754"/>
      <point x="-1025" y="754" type="curve" smooth="yes"/>
      <point x="-810" y="754"/>
      <point x="-735" y="593"/>
      <point x="-595" y="520" type="curve" smooth="yes"/>
      <point x="-572" y="508"/>
      <point x="-555" y="502"/>
      <point x="-529" y="502" type="curve" smooth="yes"/>
      <point x="-473" y="502"/>
      <point x="-431" y="538"/>
      <point x="-395" y="567" type="curve" smooth="yes"/>
      <point x="-300" y="646"/>
      <point x="-211" y="754"/>
      <point x="-38" y="754" type="curve" smooth="yes"/>
      <point x="177" y="754"/>
      <point x="248" y="593"/>
      <point x="388" y="520" type="curve" smooth="yes"/>
      <point x="411" y="508"/>
      <point x="435" y="502"/>
      <point x="461" y="502" type="curve" smooth="yes"/>
      <point x="509" y="502"/>
      <point x="555" y="517"/>
      <point x="576" y="548" type="curve" smooth="yes"/>
      <point x="597" y="579"/>
      <point x="619" y="628"/>
      <point x="619" y="696" type="curve"/>
    </contour>
  </outline>
</glyph>
<glyph name="less_asciitilde_greater.liga" format="2">
  <advance width="1126"/>
  <outline>
    <contour>
      <point x="-342" y="502" type="curve" smooth="yes"/>
      <point x="-243" y="502"/>
      <point x="-225" y="584"/>
      <point x="-225" y="696" type="curve"/>
      <point x="-65" y="696" type="line"/>
      <point x="-65" y="538"/>
      <point x="-119" y="423"/>
      <point x="-225" y="370" type="curve" smooth="yes"/>
      <point x="-261" y="352"/>
      <point x="-301" y="344"/>
      <point x="-348" y="344" type="curve" smooth="yes"/>
      <point x="-539" y="344"/>
      <point x="-602" y="505"/>
      <point x="-720" y="578" type="curve" smooth="yes"/>
      <point x="-740" y="590"/>
      <point x="-761" y="596"/>
      <point x="-784" y="596" type="curve" smooth="yes"/>
      <point x="-879" y="596"/>
      <point x="-900" y="510"/>
      <point x="-900" y="401" type="curve"/>
      <point x="-1060" y="401" type="line"/>
      <point x="-1060" y="558"/>
      <point x="-1007" y="676"/>
      <point x="-902" y="728" type="curve" smooth="yes"/>
      <point x="-866" y="746"/>
      <point x="-825" y="754"/>
      <point x="-778" y="754" type="curve" smooth="yes"/>
      <point x="-587" y="754"/>
      <point x="-524" y="593"/>
      <point x="-406" y="520" type="curve" smooth="yes"/>
      <point x="-386" y="508"/>
      <point x="-365" y="502"/>
    </contour>
    <contour>
      <point x="-833" y="985" type="line"/>
      <point x="-1628" y="543" type="line"/>
      <point x="-833" y="104" type="line"/>
      <point x="-921" y="-16" type="line"/>
      <point x="-1943" y="545" type="line"/>
      <point x="-921" y="1106" type="line"/>
    </contour>
    <contour>
      <point x="-291" y="985" type="line"/>
      <point x="-203" y="1106" type="line"/>
      <point x="819" y="545" type="line"/>
      <point x="-203" y="-16" type="line"/>
      <point x="-291" y="104" type="line"/>
      <point x="504" y="543" type="line"/>
    </contour>
  </outline>
</glyph>
<glyph name="less_asterisk.liga" format="2">
  <advance width="1126"/>
  <outline>
    <contour>
      <point x="724" y="258" type="line"/>
      <point x="890" y="398" type="line"/>
      <point x="554" y="744" type="line"/>
      <point x="442" y="648" type="line"/>
    </contour>
    <contour>
      <point x="272" y="258" type="line"/>
      <point x="554" y="648" type="line"/>
      <point x="442" y="744" type="line"/>
      <point x="106" y="398" type="line"/>
    </contour>
    <contour>
      <point x="472" y="626" type="line"/>
      <point x="524" y="766" type="line"/>
      <point x="84" y="962" type="line"/>
      <point x="10" y="758" type="line"/>
    </contour>
    <contour>
      <point x="424" y="696" type="line"/>
      <point x="572" y="696" type="line"/>
      <point x="606" y="1176" type="line"/>
      <point x="390" y="1176" type="line"/>
    </contour>
    <contour>
      <point x="524" y="626" type="line"/>
      <point x="986" y="758" type="line"/>
      <point x="912" y="962" type="line"/>
      <point x="472" y="766" type="line"/>
    </contour>
    <contour>
      <point x="18" y="214" type="line"/>
      <point x="18" y="434" type="line"/>
      <point x="-722" y="700" type="line"/>
      <point x="-722" y="718" type="line"/>
      <point x="18" y="984" type="line"/>
      <point x="18" y="1204" type="line"/>
      <point x="-940" y="810" type="line"/>
      <point x="-940" y="608" type="line"/>
    </contour>
  </outline>
</glyph>
<glyph name="less_asterisk_greater.liga" format="2">
  <advance width="1126"/>
  <outline>
    <contour>
      <point x="-833" y="985" type="line"/>
      <point x="-1628" y="543" type="line"/>
      <point x="-833" y="104" type="line"/>
      <point x="-921" y="-16" type="line"/>
      <point x="-1943" y="545" type="line"/>
      <point x="-921" y="1106" type="line"/>
    </contour>
    <contour>
      <point x="-291" y="985" type="line"/>
      <point x="-203" y="1106" type="line"/>
      <point x="819" y="545" type="line"/>
      <point x="-203" y="-16" type="line"/>
      <point x="-291" y="104" type="line"/>
      <point x="504" y="543" type="line"/>
    </contour>
    <contour>
      <point x="-165" y="394" type="line"/>
      <point x="-233" y="275" type="line"/>
      <point x="-514" y="461" type="line"/>
      <point x="-491" y="119" type="line"/>
      <point x="-634" y="119" type="line"/>
      <point x="-612" y="461" type="line"/>
      <point x="-899" y="275" type="line"/>
      <point x="-962" y="392" type="line"/>
      <point x="-655" y="543" type="line"/>
      <point x="-962" y="697" type="line"/>
      <point x="-893" y="814" type="line"/>
      <point x="-610" y="625" type="line"/>
      <point x="-634" y="967" type="line"/>
      <point x="-491" y="967" type="line"/>
      <point x="-516" y="625" type="line"/>
      <point x="-233" y="816" type="line"/>
      <point x="-163" y="693" type="line"/>
      <point x="-471" y="541" type="line"/>
    </contour>
  </outline>
</glyph>
<glyph name="less_bar.liga" format="2">
  <advance width="1126"/>
  <outline>
    <contour>
      <point x="481" y="-410" type="line"/>
      <point x="481" y="1638" type="line"/>
      <point x="-754" y="543" type="line"/>
    </contour>
    <contour>
      <point x="645" y="1774" type="line"/>
      <point x="645" y="-545" type="line"/>
      <point x="537" y="-655" type="line"/>
      <point x="-989" y="545" type="line"/>
      <point x="537" y="1885" type="line"/>
    </contour>
  </outline>
</glyph>
<glyph name="less_bar_bar.liga" format="2">
  <advance width="1126"/>
  <outline>
    <contour>
      <point x="480" y="-410" type="line"/>
      <point x="480" y="1638" type="line"/>
      <point x="644" y="1638" type="line"/>
      <point x="644" y="-410" type="line"/>
    </contour>
    <contour>
      <point x="-82" y="-430" type="line"/>
      <point x="-82" y="1658" type="line"/>
      <point x="-1800" y="543" type="line"/>
    </contour>
    <contour>
      <point x="82" y="1774" type="line"/>
      <point x="82" y="-545" type="line"/>
      <point x="-26" y="-655" type="line"/>
      <point x="-2115" y="545" type="line"/>
      <point x="-26" y="1885" type="line"/>
    </contour>
  </outline>
</glyph>
<glyph name="less_bar_bar_bar.liga" format="2">
  <advance width="1126"/>
  <outline>
    <contour>
      <point x="-645" y="-450" type="line"/>
      <point x="-645" y="1678" type="line"/>
      <point x="-2886" y="543" type="line"/>
    </contour>
    <contour>
      <point x="-481" y="1774" type="line"/>
      <point x="-481" y="-545" type="line"/>
      <point x="-589" y="-655" type="line"/>
      <point x="-3241" y="545" type="line"/>
      <point x="-589" y="1885" type="line"/>
    </contour>
    <contour>
      <point x="-82" y="-410" type="line"/>
      <point x="-82" y="1638" type="line"/>
      <point x="82" y="1638" type="line"/>
      <point x="82" y="-410" type="line"/>
    </contour>
    <contour>
      <point x="480" y="-410" type="line"/>
      <point x="480" y="1638" type="line"/>
      <point x="644" y="1638" type="line"/>
      <point x="644" y="-410" type="line"/>
    </contour>
  </outline>
</glyph>
<glyph name="less_bar_greater.liga" format="2">
  <advance width="1126"/>
  <outline>
    <contour>
      <point x="-481" y="-410" type="line"/>
      <point x="-645" y="-410" type="line"/>
      <point x="-645" y="1638" type="line"/>
      <point x="-481" y="1638" type="line"/>
    </contour>
    <contour>
      <point x="-833" y="985" type="line"/>
      <point x="-1628" y="543" type="line"/>
      <point x="-833" y="104" type="line"/>
      <point x="-921" y="-16" type="line"/>
      <point x="-1943" y="545" type="line"/>
      <point x="-921" y="1106" type="line"/>
    </contour>
    <contour>
      <point x="-291" y="985" type="line"/>
      <point x="-203" y="1106" type="line"/>
      <point x="819" y="545" type="line"/>
      <point x="-203" y="-16" type="line"/>
      <point x="-291" y="104" type="line"/>
      <point x="504" y="543" type="line"/>
    </contour>
  </outline>
</glyph>
<glyph name="less_colon.liga" format="2">
  <advance width="1126"/>
  <outline>
    <contour>
      <point x="658" y="964" type="curve" smooth="yes"/>
      <point x="740" y="964"/>
      <point x="806" y="1030"/>
      <point x="806" y="1112" type="curve" smooth="yes"/>
      <point x="806" y="1194"/>
      <point x="740" y="1260"/>
      <point x="658" y="1260" type="curve" smooth="yes"/>
      <point x="576" y="1260"/>
      <point x="510" y="1194"/>
      <point x="510" y="1112" type="curve" smooth="yes"/>
      <point x="510" y="1030"/>
      <point x="576" y="964"/>
    </contour>
    <contour>
      <point x="658" y="160" type="curve" smooth="yes"/>
      <point x="740" y="160"/>
      <point x="806" y="226"/>
      <point x="806" y="308" type="curve" smooth="yes"/>
      <point x="806" y="390"/>
      <point x="740" y="456"/>
      <point x="658" y="456" type="curve" smooth="yes"/>
      <point x="576" y="456"/>
      <point x="510" y="390"/>
      <point x="510" y="308" type="curve" smooth="yes"/>
      <point x="510" y="226"/>
      <point x="576" y="160"/>
    </contour>
    <contour>
      <point x="172" y="214" type="line"/>
      <point x="172" y="434" type="line"/>
      <point x="-568" y="700" type="line"/>
      <point x="-568" y="718" type="line"/>
      <point x="172" y="984" type="line"/>
      <point x="172" y="1204" type="line"/>
      <point x="-786" y="810" type="line"/>
      <point x="-786" y="608" type="line"/>
    </contour>
  </outline>
</glyph>
<glyph name="less_dollar.liga" format="2">
  <advance width="1126"/>
  <outline>
    <contour>
      <point x="418" y="156" type="line"/>
      <point x="565" y="156"/>
      <point x="676" y="213"/>
      <point x="676" y="352" type="curve" smooth="yes"/>
      <point x="676" y="439"/>
      <point x="619" y="480"/>
      <point x="559" y="511" type="curve" smooth="yes"/>
      <point x="533" y="524"/>
      <point x="504" y="538"/>
      <point x="469" y="551" type="curve"/>
    </contour>
    <contour>
      <point x="406" y="1155" type="line"/>
      <point x="274" y="1155"/>
      <point x="166" y="1099"/>
      <point x="166" y="975" type="curve" smooth="yes"/>
      <point x="166" y="929"/>
      <point x="181" y="892"/>
      <point x="213" y="862" type="curve" smooth="yes"/>
      <point x="245" y="832"/>
      <point x="292" y="805"/>
      <point x="355" y="780" type="curve"/>
    </contour>
    <contour>
      <point x="570" y="1300" type="line"/>
      <point x="638" y="1293"/>
      <point x="712" y="1283"/>
      <point x="772" y="1268" type="curve"/>
      <point x="772" y="1114" type="line"/>
      <point x="703" y="1132"/>
      <point x="627" y="1153"/>
      <point x="551" y="1153" type="curve"/>
      <point x="494" y="725" type="line"/>
      <point x="628" y="673"/>
      <point x="764" y="616"/>
      <point x="831" y="498" type="curve" smooth="yes"/>
      <point x="853" y="460"/>
      <point x="863" y="415"/>
      <point x="863" y="362" type="curve" smooth="yes"/>
      <point x="863" y="173"/>
      <point x="737" y="76"/>
      <point x="587" y="32" type="curve" smooth="yes"/>
      <point x="530" y="15"/>
      <point x="467" y="2"/>
      <point x="398" y="2" type="curve"/>
      <point x="365" y="-236" type="line"/>
      <point x="219" y="-236" type="line"/>
      <point x="252" y="2" type="line"/>
      <point x="-848" y="545" type="line"/>
      <point x="-176" y="1106" type="line"/>
      <point x="-67" y="995" type="line"/>
      <point x="-551" y="596" type="line"/>
      <point x="276" y="180" type="line"/>
      <point x="332" y="606" type="line"/>
      <point x="202" y="656"/>
      <point x="76" y="710"/>
      <point x="11" y="825" type="curve" smooth="yes"/>
      <point x="-10" y="862"/>
      <point x="-20" y="905"/>
      <point x="-20" y="956" type="curve" smooth="yes"/>
      <point x="-20" y="1124"/>
      <point x="96" y="1219"/>
      <point x="226" y="1268" type="curve" smooth="yes"/>
      <point x="282" y="1289"/>
      <point x="349" y="1305"/>
      <point x="426" y="1305" type="curve"/>
      <point x="451" y="1495" type="line"/>
      <point x="596" y="1495" type="line"/>
    </contour>
  </outline>
</glyph>
<glyph name="less_dollar_greater.liga" format="2">
  <advance width="1126"/>
  <outline>
    <contour>
      <point x="-579" y="1155" type="line"/>
      <point x="-711" y="1155"/>
      <point x="-819" y="1099"/>
      <point x="-819" y="975" type="curve" smooth="yes"/>
      <point x="-819" y="929"/>
      <point x="-804" y="892"/>
      <point x="-772" y="862" type="curve" smooth="yes"/>
      <point x="-740" y="832"/>
      <point x="-693" y="805"/>
      <point x="-630" y="780" type="curve"/>
    </contour>
    <contour>
      <point x="-567" y="156" type="line"/>
      <point x="-420" y="156"/>
      <point x="-309" y="213"/>
      <point x="-309" y="352" type="curve" smooth="yes"/>
      <point x="-309" y="439"/>
      <point x="-366" y="480"/>
      <point x="-426" y="511" type="curve" smooth="yes"/>
      <point x="-452" y="524"/>
      <point x="-481" y="538"/>
      <point x="-516" y="551" type="curve"/>
    </contour>
    <contour>
      <point x="-434" y="1155" type="line"/>
      <point x="-491" y="725" type="line"/>
      <point x="-357" y="673"/>
      <point x="-221" y="616"/>
      <point x="-154" y="498" type="curve" smooth="yes"/>
      <point x="-132" y="460"/>
      <point x="-122" y="415"/>
      <point x="-122" y="362" type="curve" smooth="yes"/>
      <point x="-122" y="173"/>
      <point x="-248" y="76"/>
      <point x="-398" y="32" type="curve" smooth="yes"/>
      <point x="-455" y="15"/>
      <point x="-518" y="2"/>
      <point x="-587" y="2" type="curve"/>
      <point x="-620" y="-236" type="line"/>
      <point x="-766" y="-236" type="line"/>
      <point x="-733" y="2" type="line"/>
      <point x="-2115" y="545" type="line"/>
      <point x="-1443" y="1106" type="line"/>
      <point x="-1334" y="995" type="line"/>
      <point x="-1818" y="596" type="line"/>
      <point x="-712" y="156" type="line"/>
      <point x="-653" y="606" type="line"/>
      <point x="-783" y="656"/>
      <point x="-909" y="710"/>
      <point x="-974" y="825" type="curve" smooth="yes"/>
      <point x="-995" y="862"/>
      <point x="-1005" y="905"/>
      <point x="-1005" y="956" type="curve" smooth="yes"/>
      <point x="-1005" y="1124"/>
      <point x="-889" y="1219"/>
      <point x="-759" y="1268" type="curve" smooth="yes"/>
      <point x="-703" y="1289"/>
      <point x="-636" y="1305"/>
      <point x="-559" y="1305" type="curve"/>
      <point x="-534" y="1495" type="line"/>
      <point x="-389" y="1495" type="line"/>
      <point x="-415" y="1300" type="line"/>
      <point x="989" y="545" type="line"/>
      <point x="317" y="-16" type="line"/>
      <point x="209" y="94" type="line"/>
      <point x="736" y="527" type="line"/>
    </contour>
  </outline>
</glyph>
<glyph name="less_equal_equal.liga" format="2">
  <advance width="1126"/>
  <outline>
    <contour>
      <point x="-1335" y="995" type="line"/>
      <point x="-1579" y="793" type="line"/>
      <point x="993" y="793" type="line"/>
      <point x="993" y="646" type="line"/>
      <point x="-1756" y="646" type="line"/>
      <point x="-1880" y="543" type="line"/>
      <point x="-1761" y="445" type="line"/>
      <point x="993" y="445" type="line"/>
      <point x="993" y="298" type="line"/>
      <point x="-1583" y="298" type="line"/>
      <point x="-1335" y="94" type="line"/>
      <point x="-1443" y="-16" type="line"/>
      <point x="-2115" y="545" type="line"/>
      <point x="-1443" y="1106" type="line"/>
    </contour>
  </outline>
</glyph>
<glyph name="less_equal_equal_greater.liga" format="2">
  <advance width="1126"/>
  <outline>
    <contour>
      <point x="-2038" y="995" type="line"/>
      <point x="-2282" y="793" type="line"/>
      <point x="30" y="793" type="line"/>
      <point x="-214" y="995" type="line"/>
      <point x="-106" y="1106" type="line"/>
      <point x="566" y="545" type="line"/>
      <point x="-106" y="-16" type="line"/>
      <point x="-214" y="94" type="line"/>
      <point x="34" y="298" type="line"/>
      <point x="-2286" y="298" type="line"/>
      <point x="-2038" y="94" type="line"/>
      <point x="-2146" y="-16" type="line"/>
      <point x="-2818" y="545" type="line"/>
      <point x="-2146" y="1106" type="line"/>
    </contour>
    <contour>
      <point x="207" y="646" type="line"/>
      <point x="-2459" y="646" type="line"/>
      <point x="-2583" y="543" type="line"/>
      <point x="-2464" y="445" type="line"/>
      <point x="212" y="445" type="line"/>
      <point x="331" y="543" type="line"/>
    </contour>
  </outline>
</glyph>
<glyph name="less_equal_greater.liga" format="2">
  <advance width="1126"/>
  <outline>
    <contour>
      <point x="209" y="995" type="line"/>
      <point x="317" y="1106" type="line"/>
      <point x="989" y="545" type="line"/>
      <point x="317" y="-16" type="line"/>
      <point x="209" y="94" type="line"/>
      <point x="457" y="298" type="line"/>
      <point x="-1579" y="298" type="line"/>
      <point x="-1334" y="94" type="line"/>
      <point x="-1443" y="-16" type="line"/>
      <point x="-2115" y="545" type="line"/>
      <point x="-1443" y="1106" type="line"/>
      <point x="-1334" y="995" type="line"/>
      <point x="-1580" y="793" type="line"/>
      <point x="453" y="793" type="line"/>
    </contour>
    <contour>
      <point x="-1756" y="445" type="line"/>
      <point x="635" y="445" type="line"/>
      <point x="754" y="543" type="line"/>
      <point x="630" y="646" type="line"/>
      <point x="-1759" y="646" type="line"/>
      <point x="-1879" y="547" type="line"/>
    </contour>
  </outline>
</glyph>
<glyph name="less_equal_less.liga" format="2">
  <advance width="1126"/>
  <outline>
    <contour>
      <point x="-1334" y="94" type="line"/>
      <point x="-1443" y="-16" type="line"/>
      <point x="-2115" y="545" type="line"/>
      <point x="-1443" y="1106" type="line"/>
      <point x="-1334" y="995" type="line"/>
      <point x="-1580" y="793" type="line"/>
      <point x="434" y="793" type="line"/>
      <point x="809" y="1106" type="line"/>
      <point x="918" y="995" type="line"/>
      <point x="373" y="547" type="line"/>
      <point x="918" y="94" type="line"/>
      <point x="809" y="-16" type="line"/>
      <point x="433" y="298" type="line"/>
      <point x="-1579" y="298" type="line"/>
    </contour>
    <contour>
      <point x="258" y="646" type="line"/>
      <point x="-1759" y="646" type="line"/>
      <point x="-1879" y="547" type="line"/>
      <point x="-1756" y="445" type="line"/>
      <point x="257" y="445" type="line"/>
      <point x="137" y="545" type="line"/>
    </contour>
  </outline>
</glyph>
<glyph name="less_greater.liga" format="2">
  <advance width="1126"/>
  <outline>
    <contour>
      <point x="10" y="214" type="line"/>
      <point x="968" y="608" type="line"/>
      <point x="968" y="810" type="line"/>
      <point x="10" y="1204" type="line"/>
      <point x="10" y="984" type="line"/>
      <point x="710" y="718" type="line"/>
      <point x="710" y="700" type="line"/>
      <point x="10" y="434" type="line"/>
    </contour>
    <contour>
      <point x="10" y="214" type="line"/>
      <point x="10" y="434" type="line"/>
      <point x="-730" y="700" type="line"/>
      <point x="-730" y="718" type="line"/>
      <point x="10" y="984" type="line"/>
      <point x="10" y="1204" type="line"/>
      <point x="-948" y="810" type="line"/>
      <point x="-948" y="608" type="line"/>
    </contour>
  </outline>
</glyph>
<glyph name="less_hyphen.liga" format="2">
  <advance width="1126"/>
  <outline>
    <contour>
      <point x="-208" y="94" type="line"/>
      <point x="-317" y="-16" type="line"/>
      <point x="-989" y="545" type="line"/>
      <point x="-317" y="1106" type="line"/>
      <point x="-208" y="995" type="line"/>
      <point x="-656" y="627" type="line"/>
      <point x="862" y="627" type="line"/>
      <point x="862" y="463" type="line"/>
      <point x="-652" y="463" type="line"/>
    </contour>
  </outline>
</glyph>
<glyph name="less_hyphen_less.liga" format="2">
  <advance width="1126"/>
  <outline>
    <contour>
      <point x="-1052" y="94" type="line"/>
      <point x="-1161" y="-16" type="line"/>
      <point x="-1833" y="545" type="line"/>
      <point x="-1161" y="1106" type="line"/>
      <point x="-1052" y="995" type="line"/>
      <point x="-1500" y="627" type="line"/>
      <point x="-47" y="627" type="line"/>
      <point x="527" y="1106" type="line"/>
      <point x="636" y="995" type="line"/>
      <point x="91" y="547" type="line"/>
      <point x="636" y="94" type="line"/>
      <point x="527" y="-16" type="line"/>
      <point x="-47" y="463" type="line"/>
      <point x="-1496" y="463" type="line"/>
    </contour>
  </outline>
</glyph>
<glyph name="less_less_equal.liga" format="2">
  <advance width="1126"/>
  <outline>
    <contour>
      <point x="-772" y="995" type="line"/>
      <point x="-1016" y="793" type="line"/>
      <point x="993" y="793" type="line"/>
      <point x="993" y="646" type="line"/>
      <point x="-1193" y="646" type="line"/>
      <point x="-1317" y="543" type="line"/>
      <point x="-1198" y="445" type="line"/>
      <point x="993" y="445" type="line"/>
      <point x="993" y="298" type="line"/>
      <point x="-1020" y="298" type="line"/>
      <point x="-772" y="94" type="line"/>
      <point x="-880" y="-16" type="line"/>
      <point x="-1552" y="545" type="line"/>
      <point x="-880" y="1106" type="line"/>
    </contour>
    <contour>
      <point x="-1335" y="995" type="line"/>
      <point x="-1880" y="543" type="line"/>
      <point x="-1335" y="94" type="line"/>
      <point x="-1443" y="-16" type="line"/>
      <point x="-2115" y="545" type="line"/>
      <point x="-1443" y="1106" type="line"/>
    </contour>
  </outline>
</glyph>
<glyph name="less_less_hyphen.liga" format="2">
  <advance width="1126"/>
  <outline>
    <contour>
      <point x="-1335" y="995" type="line"/>
      <point x="-1880" y="543" type="line"/>
      <point x="-1335" y="94" type="line"/>
      <point x="-1443" y="-16" type="line"/>
      <point x="-2115" y="545" type="line"/>
      <point x="-1443" y="1106" type="line"/>
    </contour>
    <contour>
      <point x="-1216" y="627" type="line"/>
      <point x="862" y="627" type="line"/>
      <point x="862" y="463" type="line"/>
      <point x="-1220" y="463" type="line"/>
      <point x="-772" y="94" type="line"/>
      <point x="-880" y="-16" type="line"/>
      <point x="-1552" y="545" type="line"/>
      <point x="-880" y="1106" type="line"/>
      <point x="-772" y="995" type="line"/>
    </contour>
  </outline>
</glyph>
<glyph name="less_less_less.liga" format="2">
  <advance width="1126"/>
  <outline>
    <contour>
      <point x="-126" y="214" type="line"/>
      <point x="-126" y="434" type="line"/>
      <point x="-866" y="700" type="line"/>
      <point x="-866" y="718" type="line"/>
      <point x="-126" y="984" type="line"/>
      <point x="-126" y="1204" type="line"/>
      <point x="-1084" y="810" type="line"/>
      <point x="-1084" y="608" type="line"/>
    </contour>
    <contour>
      <point x="-1182" y="214" type="line"/>
      <point x="-1182" y="434" type="line"/>
      <point x="-1922" y="700" type="line"/>
      <point x="-1922" y="718" type="line"/>
      <point x="-1182" y="984" type="line"/>
      <point x="-1182" y="1204" type="line"/>
      <point x="-2140" y="810" type="line"/>
      <point x="-2140" y="608" type="line"/>
    </contour>
    <contour>
      <point x="920" y="214" type="line"/>
      <point x="920" y="434" type="line"/>
      <point x="180" y="700" type="line"/>
      <point x="180" y="718" type="line"/>
      <point x="920" y="984" type="line"/>
      <point x="920" y="1204" type="line"/>
      <point x="-38" y="810" type="line"/>
      <point x="-38" y="608" type="line"/>
    </contour>
  </outline>
</glyph>
<glyph name="less_plus.liga" format="2">
  <advance width="1126"/>
  <outline>
    <contour>
      <point x="892" y="469" type="line"/>
      <point x="499" y="469" type="line"/>
      <point x="499" y="61" type="line"/>
      <point x="327" y="61" type="line"/>
      <point x="327" y="469" type="line"/>
      <point x="-66" y="469" type="line"/>
      <point x="-66" y="621" type="line"/>
      <point x="327" y="621" type="line"/>
      <point x="327" y="1026" type="line"/>
      <point x="499" y="1026" type="line"/>
      <point x="499" y="621" type="line"/>
      <point x="892" y="621" type="line"/>
    </contour>
    <contour>
      <point x="143" y="985" type="line"/>
      <point x="-652" y="543" type="line"/>
      <point x="143" y="104" type="line"/>
      <point x="55" y="-16" type="line"/>
      <point x="-967" y="545" type="line"/>
      <point x="55" y="1106" type="line"/>
    </contour>
  </outline>
</glyph>
<glyph name="less_plus_greater.liga" format="2">
  <advance width="1126"/>
  <outline>
    <contour>
      <point x="-686" y="190" type="line"/>
      <point x="-494" y="190" type="line"/>
      <point x="-494" y="1228" type="line"/>
      <point x="-686" y="1228" type="line"/>
    </contour>
    <contour>
      <point x="-1090" y="617" type="line"/>
      <point x="-90" y="617" type="line"/>
      <point x="-90" y="803" type="line"/>
      <point x="-1090" y="803" type="line"/>
    </contour>
    <contour>
      <point x="-1182" y="214" type="line"/>
      <point x="-1182" y="434" type="line"/>
      <point x="-1922" y="700" type="line"/>
      <point x="-1922" y="718" type="line"/>
      <point x="-1182" y="984" type="line"/>
      <point x="-1182" y="1204" type="line"/>
      <point x="-2140" y="810" type="line"/>
      <point x="-2140" y="608" type="line"/>
    </contour>
    <contour>
      <point x="2" y="214" type="line"/>
      <point x="960" y="608" type="line"/>
      <point x="960" y="810" type="line"/>
      <point x="2" y="1204" type="line"/>
      <point x="2" y="984" type="line"/>
      <point x="702" y="718" type="line"/>
      <point x="702" y="700" type="line"/>
      <point x="2" y="434" type="line"/>
    </contour>
  </outline>
</glyph>
<glyph name="less_slash.liga" format="2">
  <advance width="1126"/>
  <outline>
    <contour>
      <point x="48" y="-190" type="line"/>
      <point x="260" y="-190" type="line"/>
      <point x="1064" y="1610" type="line"/>
      <point x="852" y="1610" type="line"/>
    </contour>
    <contour>
      <point x="336" y="46" type="line"/>
      <point x="366" y="246" type="line"/>
      <point x="-712" y="700" type="line"/>
      <point x="-712" y="718" type="line"/>
      <point x="18" y="994" type="line"/>
      <point x="18" y="1214" type="line"/>
      <point x="-960" y="810" type="line"/>
      <point x="-960" y="608" type="line"/>
    </contour>
  </outline>
</glyph>
<glyph name="less_slash_greater.liga" format="2">
  <advance width="1126"/>
  <outline>
    <contour>
      <point x="-230" y="1246" type="line"/>
      <point x="-845" y="-215" type="line"/>
      <point x="-1011" y="-215" type="line"/>
      <point x="-1833" y="545" type="line"/>
      <point x="-1161" y="1106" type="line"/>
      <point x="-1052" y="995" type="line"/>
      <point x="-1580" y="558" type="line"/>
      <point x="-938" y="-42" type="line"/>
      <point x="-325" y="1413" type="line"/>
      <point x="-159" y="1413" type="line"/>
      <point x="707" y="545" type="line"/>
      <point x="35" y="-16" type="line"/>
      <point x="-73" y="94" type="line"/>
      <point x="466" y="538" type="line"/>
    </contour>
  </outline>
</glyph>
<glyph name="nineinferior" format="2">
  <advance width="1126"/>
  <outline>
    <contour>
      <point x="402" y="-16" type="line"/>
      <point x="737" y="-4"/>
      <point x="880" y="108"/>
      <point x="880" y="359" type="curve" smooth="yes"/>
      <point x="880" y="380" type="line"/>
      <point x="753" y="460" type="line"/>
      <point x="703" y="315" type="line"/>
      <point x="703" y="187"/>
      <point x="611" y="131"/>
      <point x="394" y="125" type="curve"/>
    </contour>
    <contour>
      <point x="600" y="344" type="curve" smooth="yes"/>
      <point x="535" y="344"/>
      <point x="500" y="371"/>
      <point x="500" y="418" type="curve" smooth="yes"/>
      <point x="500" y="468"/>
      <point x="535" y="496"/>
      <point x="600" y="496" type="curve" smooth="yes"/>
      <point x="667" y="496"/>
      <point x="704" y="471"/>
      <point x="704" y="421" type="curve" smooth="yes"/>
      <point x="704" y="372"/>
      <point x="666" y="344"/>
    </contour>
    <contour>
      <point x="522" y="226" type="curve" smooth="yes"/>
      <point x="610" y="226"/>
      <point x="675" y="258"/>
      <point x="695" y="314" type="curve"/>
      <point x="726" y="314" type="line"/>
      <point x="756" y="450" type="line"/>
      <point x="880" y="380" type="line"/>
      <point x="880" y="537"/>
      <point x="777" y="626"/>
      <point x="595" y="626" type="curve" smooth="yes"/>
      <point x="422" y="626"/>
      <point x="324" y="548"/>
      <point x="324" y="413" type="curve" smooth="yes"/>
      <point x="324" y="294"/>
      <point x="395" y="226"/>
    </contour>
  </outline>
</glyph>
<glyph name="num_num_num.liga" format="2">
  <advance width="1126"/>
  <outline>
    <contour>
      <point x="490" y="0" type="line"/>
      <point x="666" y="0" type="line"/>
      <point x="786" y="1420" type="line"/>
      <point x="610" y="1420" type="line"/>
    </contour>
    <contour>
      <point x="-80" y="360" type="line"/>
      <point x="920" y="360" type="line"/>
      <point x="920" y="530" type="line"/>
      <point x="-80" y="530" type="line"/>
    </contour>
    <contour>
      <point x="54" y="0" type="line"/>
      <point x="230" y="0" type="line"/>
      <point x="350" y="1420" type="line"/>
      <point x="174" y="1420" type="line"/>
    </contour>
    <contour>
      <point x="-80" y="890" type="line"/>
      <point x="920" y="890" type="line"/>
      <point x="920" y="1060" type="line"/>
      <point x="-80" y="1060" type="line"/>
    </contour>
    <contour>
      <point x="-530" y="0" type="line"/>
      <point x="-354" y="0" type="line"/>
      <point x="-234" y="1420" type="line"/>
      <point x="-410" y="1420" type="line"/>
    </contour>
    <contour>
      <point x="-1100" y="360" type="line"/>
      <point x="-100" y="360" type="line"/>
      <point x="-100" y="530" type="line"/>
      <point x="-1100" y="530" type="line"/>
    </contour>
    <contour>
      <point x="-966" y="0" type="line"/>
      <point x="-790" y="0" type="line"/>
      <point x="-670" y="1420" type="line"/>
      <point x="-846" y="1420" type="line"/>
    </contour>
    <contour>
      <point x="-1100" y="890" type="line"/>
      <point x="-100" y="890" type="line"/>
      <point x="-100" y="1060" type="line"/>
      <point x="-1100" y="1060" type="line"/>
    </contour>
    <contour>
      <point x="-1550" y="0" type="line"/>
      <point x="-1374" y="0" type="line"/>
      <point x="-1254" y="1420" type="line"/>
      <point x="-1430" y="1420" type="line"/>
    </contour>
    <contour>
      <point x="-2120" y="360" type="line"/>
      <point x="-1120" y="360" type="line"/>
      <point x="-1120" y="530" type="line"/>
      <point x="-2120" y="530" type="line"/>
    </contour>
    <contour>
      <point x="-1986" y="0" type="line"/>
      <point x="-1810" y="0" type="line"/>
      <point x="-1690" y="1420" type="line"/>
      <point x="-1866" y="1420" type="line"/>
    </contour>
    <contour>
      <point x="-2120" y="890" type="line"/>
      <point x="-1120" y="890" type="line"/>
      <point x="-1120" y="1060" type="line"/>
      <point x="-2120" y="1060" type="line"/>
    </contour>
    <contour>
      <point x="-1242" y="890" type="line"/>
      <point x="88" y="890" type="line"/>
      <point x="88" y="1060" type="line"/>
      <point x="-1242" y="1060" type="line"/>
    </contour>
    <contour>
      <point x="-1242" y="360" type="line"/>
      <point x="88" y="360" type="line"/>
      <point x="88" y="530" type="line"/>
      <point x="-1242" y="530" type="line"/>
    </contour>
  </outline>
</glyph>
<glyph name="numbersign_bracketleft.liga" format="2">
  <advance width="1126"/>
  <outline>
    <contour>
      <point x="336" y="-214" type="line"/>
      <point x="536" y="-214" type="line"/>
      <point x="536" y="1634" type="line"/>
      <point x="336" y="1634" type="line"/>
    </contour>
    <contour>
      <point x="516" y="-214" type="line"/>
      <point x="962" y="-214" type="line"/>
      <point x="962" y="-24" type="line"/>
      <point x="516" y="-24" type="line"/>
    </contour>
    <contour>
      <point x="516" y="1444" type="line"/>
      <point x="962" y="1444" type="line"/>
      <point x="962" y="1634" type="line"/>
      <point x="516" y="1634" type="line"/>
    </contour>
    <contour>
      <point x="-350" y="0" type="line"/>
      <point x="-174" y="0" type="line"/>
      <point x="-54" y="1420" type="line"/>
      <point x="-230" y="1420" type="line"/>
    </contour>
    <contour>
      <point x="-786" y="0" type="line"/>
      <point x="-610" y="0" type="line"/>
      <point x="-490" y="1420" type="line"/>
      <point x="-666" y="1420" type="line"/>
    </contour>
    <contour>
      <point x="-920" y="360" type="line"/>
      <point x="440" y="360" type="line"/>
      <point x="440" y="530" type="line"/>
      <point x="-920" y="530" type="line"/>
    </contour>
    <contour>
      <point x="-920" y="890" type="line"/>
      <point x="440" y="890" type="line"/>
      <point x="440" y="1060" type="line"/>
      <point x="-920" y="1060" type="line"/>
    </contour>
  </outline>
</glyph>
<glyph name="numbersign_colon.liga" format="2">
  <advance width="1126"/>
  <outline>
    <contour>
      <point x="45" y="367" type="line"/>
      <point x="-178" y="367" type="line"/>
      <point x="-215" y="0" type="line"/>
      <point x="-363" y="0" type="line"/>
      <point x="-326" y="367" type="line"/>
      <point x="-581" y="367" type="line"/>
      <point x="-618" y="0" type="line"/>
      <point x="-766" y="0" type="line"/>
      <point x="-729" y="367" type="line"/>
      <point x="-942" y="367" type="line"/>
      <point x="-942" y="497" type="line"/>
      <point x="-716" y="497" type="line"/>
      <point x="-680" y="847" type="line"/>
      <point x="-891" y="847" type="line"/>
      <point x="-891" y="977" type="line"/>
      <point x="-667" y="977" type="line"/>
      <point x="-633" y="1307" type="line"/>
      <point x="-487" y="1307" type="line"/>
      <point x="-520" y="977" type="line"/>
      <point x="-264" y="977" type="line"/>
      <point x="-230" y="1307" type="line"/>
      <point x="-82" y="1307" type="line"/>
      <point x="-117" y="977" type="line"/>
      <point x="98" y="977" type="line"/>
      <point x="98" y="847" type="line"/>
      <point x="-130" y="847" type="line"/>
      <point x="-165" y="497" type="line"/>
      <point x="45" y="497" type="line"/>
    </contour>
    <contour>
      <point x="-312" y="497" type="line"/>
      <point x="-277" y="847" type="line"/>
      <point x="-533" y="847" type="line"/>
      <point x="-568" y="497" type="line"/>
    </contour>
    <contour>
      <point x="422" y="1022" type="curve" smooth="yes"/>
      <point x="509" y="1022"/>
      <point x="576" y="954"/>
      <point x="576" y="868" type="curve" smooth="yes"/>
      <point x="576" y="781"/>
      <point x="509" y="715"/>
      <point x="422" y="715" type="curve" smooth="yes"/>
      <point x="352" y="715"/>
      <point x="303" y="758"/>
      <point x="281" y="808" type="curve" smooth="yes"/>
      <point x="273" y="826"/>
      <point x="269" y="847"/>
      <point x="269" y="868" type="curve" smooth="yes"/>
      <point x="269" y="939"/>
      <point x="313" y="988"/>
      <point x="363" y="1010" type="curve" smooth="yes"/>
      <point x="381" y="1018"/>
      <point x="401" y="1022"/>
    </contour>
    <contour>
      <point x="422" y="289" type="curve" smooth="yes"/>
      <point x="508" y="289"/>
      <point x="576" y="221"/>
      <point x="576" y="135" type="curve" smooth="yes"/>
      <point x="576" y="48"/>
      <point x="509" y="-18"/>
      <point x="422" y="-18" type="curve" smooth="yes"/>
      <point x="351" y="-18"/>
      <point x="303" y="26"/>
      <point x="281" y="76" type="curve" smooth="yes"/>
      <point x="273" y="94"/>
      <point x="269" y="114"/>
      <point x="269" y="135" type="curve" smooth="yes"/>
      <point x="269" y="206"/>
      <point x="313" y="254"/>
      <point x="363" y="276" type="curve" smooth="yes"/>
      <point x="381" y="284"/>
      <point x="401" y="289"/>
    </contour>
  </outline>
</glyph>
<glyph name="numbersign_equal.liga" format="2">
  <advance width="1126"/>
  <outline>
    <contour>
      <point x="-350" y="0" type="line"/>
      <point x="-174" y="0" type="line"/>
      <point x="-54" y="1420" type="line"/>
      <point x="-230" y="1420" type="line"/>
    </contour>
    <contour>
      <point x="-920" y="360" type="line"/>
      <point x="80" y="360" type="line"/>
      <point x="80" y="530" type="line"/>
      <point x="-920" y="530" type="line"/>
    </contour>
    <contour>
      <point x="-786" y="0" type="line"/>
      <point x="-610" y="0" type="line"/>
      <point x="-490" y="1420" type="line"/>
      <point x="-666" y="1420" type="line"/>
    </contour>
    <contour>
      <point x="-920" y="890" type="line"/>
      <point x="80" y="890" type="line"/>
      <point x="80" y="1060" type="line"/>
      <point x="-920" y="1060" type="line"/>
    </contour>
    <contour>
      <point x="160" y="884" type="line"/>
      <point x="920" y="884" type="line"/>
      <point x="920" y="1060" type="line"/>
      <point x="160" y="1060" type="line"/>
    </contour>
    <contour>
      <point x="160" y="358" type="line"/>
      <point x="920" y="358" type="line"/>
      <point x="920" y="534" type="line"/>
      <point x="160" y="534" type="line"/>
    </contour>
  </outline>
</glyph>
<glyph name="numbersign_exclam.liga" format="2">
  <advance width="1126"/>
  <outline>
    <contour>
      <point x="524" y="456" type="line"/>
      <point x="716" y="456" type="line"/>
      <point x="726" y="1430" type="line"/>
      <point x="518" y="1430" type="line"/>
    </contour>
    <contour>
      <point x="622" y="-20" type="curve" smooth="yes"/>
      <point x="704" y="-20"/>
      <point x="770" y="46"/>
      <point x="770" y="128" type="curve" smooth="yes"/>
      <point x="770" y="210"/>
      <point x="704" y="276"/>
      <point x="622" y="276" type="curve" smooth="yes"/>
      <point x="540" y="276"/>
      <point x="474" y="210"/>
      <point x="474" y="128" type="curve" smooth="yes"/>
      <point x="474" y="46"/>
      <point x="540" y="-20"/>
    </contour>
    <contour>
      <point x="-350" y="0" type="line"/>
      <point x="-174" y="0" type="line"/>
      <point x="-54" y="1420" type="line"/>
      <point x="-230" y="1420" type="line"/>
    </contour>
    <contour>
      <point x="-920" y="360" type="line"/>
      <point x="80" y="360" type="line"/>
      <point x="80" y="530" type="line"/>
      <point x="-920" y="530" type="line"/>
    </contour>
    <contour>
      <point x="-786" y="0" type="line"/>
      <point x="-610" y="0" type="line"/>
      <point x="-490" y="1420" type="line"/>
      <point x="-666" y="1420" type="line"/>
    </contour>
    <contour>
      <point x="-920" y="890" type="line"/>
      <point x="80" y="890" type="line"/>
      <point x="80" y="1060" type="line"/>
      <point x="-920" y="1060" type="line"/>
    </contour>
  </outline>
</glyph>
<glyph name="numbersign_numbersign.liga" format="2">
  <advance width="1126"/>
  <outline>
    <contour>
      <point x="490" y="0" type="line"/>
      <point x="666" y="0" type="line"/>
      <point x="786" y="1420" type="line"/>
      <point x="610" y="1420" type="line"/>
    </contour>
    <contour>
      <point x="-80" y="360" type="line"/>
      <point x="920" y="360" type="line"/>
      <point x="920" y="530" type="line"/>
      <point x="-80" y="530" type="line"/>
    </contour>
    <contour>
      <point x="54" y="0" type="line"/>
      <point x="230" y="0" type="line"/>
      <point x="350" y="1420" type="line"/>
      <point x="174" y="1420" type="line"/>
    </contour>
    <contour>
      <point x="-80" y="890" type="line"/>
      <point x="920" y="890" type="line"/>
      <point x="920" y="1060" type="line"/>
      <point x="-80" y="1060" type="line"/>
    </contour>
    <contour>
      <point x="-350" y="0" type="line"/>
      <point x="-174" y="0" type="line"/>
      <point x="-54" y="1420" type="line"/>
      <point x="-230" y="1420" type="line"/>
    </contour>
    <contour>
      <point x="-920" y="360" type="line"/>
      <point x="80" y="360" type="line"/>
      <point x="80" y="530" type="line"/>
      <point x="-920" y="530" type="line"/>
    </contour>
    <contour>
      <point x="-786" y="0" type="line"/>
      <point x="-610" y="0" type="line"/>
      <point x="-490" y="1420" type="line"/>
      <point x="-666" y="1420" type="line"/>
    </contour>
    <contour>
      <point x="-920" y="890" type="line"/>
      <point x="80" y="890" type="line"/>
      <point x="80" y="1060" type="line"/>
      <point x="-920" y="1060" type="line"/>
    </contour>
  </outline>
</glyph>
<glyph name="numbersign_parenleft.liga" format="2">
  <advance width="1126"/>
  <outline>
    <contour>
      <point x="930" y="-200" type="curve" smooth="yes"/>
      <point x="978" y="-200" type="line"/>
      <point x="958" y="-20" type="line"/>
      <point x="950" y="-20" type="line" smooth="yes"/>
      <point x="634" y="-20"/>
      <point x="456" y="249"/>
      <point x="456" y="716" type="curve" smooth="yes"/>
      <point x="456" y="1175"/>
      <point x="634" y="1440"/>
      <point x="950" y="1440" type="curve" smooth="yes"/>
      <point x="958" y="1440" type="line"/>
      <point x="978" y="1620" type="line"/>
      <point x="930" y="1620" type="line" smooth="yes"/>
      <point x="496" y="1620"/>
      <point x="246" y="1291"/>
      <point x="246" y="716" type="curve" smooth="yes"/>
      <point x="246" y="133"/>
      <point x="496" y="-200"/>
    </contour>
    <contour>
      <point x="-350" y="0" type="line"/>
      <point x="-174" y="0" type="line"/>
      <point x="-54" y="1420" type="line"/>
      <point x="-230" y="1420" type="line"/>
    </contour>
    <contour>
      <point x="-786" y="0" type="line"/>
      <point x="-610" y="0" type="line"/>
      <point x="-490" y="1420" type="line"/>
      <point x="-666" y="1420" type="line"/>
    </contour>
    <contour>
      <point x="-920" y="360" type="line"/>
      <point x="420" y="360" type="line"/>
      <point x="420" y="530" type="line"/>
      <point x="-920" y="530" type="line"/>
    </contour>
    <contour>
      <point x="-920" y="890" type="line"/>
      <point x="420" y="890" type="line"/>
      <point x="420" y="1060" type="line"/>
      <point x="-920" y="1060" type="line"/>
    </contour>
  </outline>
</glyph>
<glyph name="one.dnom" format="2">
  <advance width="1126"/>
  <outline>
    <contour>
      <point x="541" y="0" type="line"/>
      <point x="697" y="0" type="line"/>
      <point x="697" y="620" type="line"/>
      <point x="541" y="620" type="line"/>
    </contour>
    <contour>
      <point x="342" y="0" type="line"/>
      <point x="549" y="0" type="line"/>
      <point x="549" y="141" type="line"/>
      <point x="342" y="141" type="line"/>
    </contour>
    <contour>
      <point x="688" y="0" type="line"/>
      <point x="860" y="0" type="line"/>
      <point x="860" y="141" type="line"/>
      <point x="688" y="141" type="line"/>
    </contour>
    <contour>
      <point x="351" y="409" type="line"/>
      <point x="541" y="460" type="line"/>
      <point x="541" y="620" type="line"/>
      <point x="351" y="567" type="line"/>
    </contour>
  </outline>
</glyph>
<glyph name="period_equal.liga" format="2">
  <advance width="1126"/>
  <outline>
    <contour>
      <point x="-660" y="560" type="curve" smooth="yes"/>
      <point x="-578" y="560"/>
      <point x="-512" y="626"/>
      <point x="-512" y="708" type="curve" smooth="yes"/>
      <point x="-512" y="790"/>
      <point x="-578" y="856"/>
      <point x="-660" y="856" type="curve" smooth="yes"/>
      <point x="-742" y="856"/>
      <point x="-808" y="790"/>
      <point x="-808" y="708" type="curve" smooth="yes"/>
      <point x="-808" y="626"/>
      <point x="-742" y="560"/>
    </contour>
    <contour>
      <point x="-100" y="866" type="line"/>
      <point x="920" y="866" type="line"/>
      <point x="920" y="1052" type="line"/>
      <point x="-100" y="1052" type="line"/>
    </contour>
    <contour>
      <point x="-100" y="366" type="line"/>
      <point x="920" y="366" type="line"/>
      <point x="920" y="552" type="line"/>
      <point x="-100" y="552" type="line"/>
    </contour>
  </outline>
</glyph>
<glyph name="period_hyphen.liga" format="2">
  <advance width="1126"/>
  <outline>
    <contour>
      <point x="-660" y="560" type="curve" smooth="yes"/>
      <point x="-578" y="560"/>
      <point x="-512" y="626"/>
      <point x="-512" y="708" type="curve" smooth="yes"/>
      <point x="-512" y="790"/>
      <point x="-578" y="856"/>
      <point x="-660" y="856" type="curve" smooth="yes"/>
      <point x="-742" y="856"/>
      <point x="-808" y="790"/>
      <point x="-808" y="708" type="curve" smooth="yes"/>
      <point x="-808" y="626"/>
      <point x="-742" y="560"/>
    </contour>
    <contour>
      <point x="-180" y="614" type="line"/>
      <point x="920" y="614" type="line"/>
      <point x="920" y="800" type="line"/>
      <point x="-180" y="800" type="line"/>
    </contour>
  </outline>
</glyph>
<glyph name="period_period.liga" format="2">
  <advance width="1126"/>
  <outline>
    <contour>
      <point x="414" y="315" type="qcurve" smooth="yes"/>
      <point x="469" y="315"/>
      <point x="548" y="257"/>
      <point x="567" y="212" type="qcurve" smooth="yes"/>
      <point x="580" y="183"/>
      <point x="580" y="147" type="qcurve" smooth="yes"/>
      <point x="580" y="76"/>
      <point x="485" y="-18"/>
      <point x="414" y="-18" type="qcurve" smooth="yes"/>
      <point x="359" y="-18"/>
      <point x="280" y="39"/>
      <point x="261" y="83" type="qcurve" smooth="yes"/>
      <point x="248" y="112"/>
      <point x="248" y="147" type="qcurve" smooth="yes"/>
      <point x="248" y="202"/>
      <point x="305" y="283"/>
      <point x="349" y="302" type="qcurve" smooth="yes"/>
      <point x="378" y="315"/>
    </contour>
    <contour>
      <point x="-430" y="315" type="qcurve" smooth="yes"/>
      <point x="-375" y="315"/>
      <point x="-296" y="257"/>
      <point x="-277" y="212" type="qcurve" smooth="yes"/>
      <point x="-264" y="183"/>
      <point x="-264" y="147" type="qcurve" smooth="yes"/>
      <point x="-264" y="76"/>
      <point x="-359" y="-18"/>
      <point x="-430" y="-18" type="qcurve" smooth="yes"/>
      <point x="-485" y="-18"/>
      <point x="-564" y="39"/>
      <point x="-583" y="83" type="qcurve" smooth="yes"/>
      <point x="-596" y="112"/>
      <point x="-596" y="147" type="qcurve" smooth="yes"/>
      <point x="-596" y="202"/>
      <point x="-539" y="283"/>
      <point x="-495" y="302" type="qcurve" smooth="yes"/>
      <point x="-466" y="315"/>
    </contour>
  </outline>
</glyph>
<glyph name="period_period_equal.liga" format="2">
  <advance width="1126"/>
  <outline>
    <contour>
      <point x="-1150" y="560" type="curve" smooth="yes"/>
      <point x="-1068" y="560"/>
      <point x="-1002" y="626"/>
      <point x="-1002" y="708" type="curve" smooth="yes"/>
      <point x="-1002" y="790"/>
      <point x="-1068" y="856"/>
      <point x="-1150" y="856" type="curve" smooth="yes"/>
      <point x="-1232" y="856"/>
      <point x="-1298" y="790"/>
      <point x="-1298" y="708" type="curve" smooth="yes"/>
      <point x="-1298" y="626"/>
      <point x="-1232" y="560"/>
    </contour>
    <contour>
      <point x="-1920" y="560" type="curve" smooth="yes"/>
      <point x="-1838" y="560"/>
      <point x="-1772" y="626"/>
      <point x="-1772" y="708" type="curve" smooth="yes"/>
      <point x="-1772" y="790"/>
      <point x="-1838" y="856"/>
      <point x="-1920" y="856" type="curve" smooth="yes"/>
      <point x="-2002" y="856"/>
      <point x="-2068" y="790"/>
      <point x="-2068" y="708" type="curve" smooth="yes"/>
      <point x="-2068" y="626"/>
      <point x="-2002" y="560"/>
    </contour>
    <contour>
      <point x="-500" y="866" type="line"/>
      <point x="920" y="866" type="line"/>
      <point x="920" y="1052" type="line"/>
      <point x="-500" y="1052" type="line"/>
    </contour>
    <contour>
      <point x="-500" y="366" type="line"/>
      <point x="920" y="366" type="line"/>
      <point x="920" y="552" type="line"/>
      <point x="-500" y="552" type="line"/>
    </contour>
  </outline>
</glyph>
<glyph name="period_period_less.liga" format="2">
  <advance width="1126"/>
  <outline>
    <contour>
      <point x="-862" y="542" type="curve" smooth="yes"/>
      <point x="-780" y="542"/>
      <point x="-714" y="608"/>
      <point x="-714" y="690" type="curve" smooth="yes"/>
      <point x="-714" y="772"/>
      <point x="-780" y="838"/>
      <point x="-862" y="838" type="curve" smooth="yes"/>
      <point x="-944" y="838"/>
      <point x="-1010" y="772"/>
      <point x="-1010" y="690" type="curve" smooth="yes"/>
      <point x="-1010" y="608"/>
      <point x="-944" y="542"/>
    </contour>
    <contour>
      <point x="-1860" y="542" type="curve" smooth="yes"/>
      <point x="-1778" y="542"/>
      <point x="-1712" y="608"/>
      <point x="-1712" y="690" type="curve" smooth="yes"/>
      <point x="-1712" y="772"/>
      <point x="-1778" y="838"/>
      <point x="-1860" y="838" type="curve" smooth="yes"/>
      <point x="-1942" y="838"/>
      <point x="-2008" y="772"/>
      <point x="-2008" y="690" type="curve" smooth="yes"/>
      <point x="-2008" y="608"/>
      <point x="-1942" y="542"/>
    </contour>
    <contour>
      <point x="920" y="214" type="line"/>
      <point x="920" y="434" type="line"/>
      <point x="60" y="700" type="line"/>
      <point x="60" y="718" type="line"/>
      <point x="920" y="984" type="line"/>
      <point x="920" y="1204" type="line"/>
      <point x="-218" y="810" type="line"/>
      <point x="-218" y="608" type="line"/>
    </contour>
  </outline>
</glyph>
<glyph name="period_period_period.liga" format="2">
  <advance width="1126"/>
  <outline>
    <contour>
      <point x="273" y="315" type="qcurve" smooth="yes"/>
      <point x="328" y="315"/>
      <point x="407" y="257"/>
      <point x="426" y="212" type="qcurve" smooth="yes"/>
      <point x="439" y="183"/>
      <point x="439" y="147" type="qcurve" smooth="yes"/>
      <point x="439" y="76"/>
      <point x="344" y="-18"/>
      <point x="273" y="-18" type="qcurve" smooth="yes"/>
      <point x="218" y="-18"/>
      <point x="139" y="39"/>
      <point x="120" y="83" type="qcurve" smooth="yes"/>
      <point x="107" y="112"/>
      <point x="107" y="147" type="qcurve" smooth="yes"/>
      <point x="107" y="202"/>
      <point x="164" y="283"/>
      <point x="208" y="302" type="qcurve" smooth="yes"/>
      <point x="237" y="315"/>
    </contour>
    <contour>
      <point x="-1415" y="315" type="qcurve" smooth="yes"/>
      <point x="-1360" y="315"/>
      <point x="-1281" y="257"/>
      <point x="-1262" y="212" type="qcurve" smooth="yes"/>
      <point x="-1249" y="183"/>
      <point x="-1249" y="147" type="qcurve" smooth="yes"/>
      <point x="-1249" y="76"/>
      <point x="-1344" y="-18"/>
      <point x="-1415" y="-18" type="qcurve" smooth="yes"/>
      <point x="-1470" y="-18"/>
      <point x="-1549" y="39"/>
      <point x="-1568" y="83" type="qcurve" smooth="yes"/>
      <point x="-1581" y="112"/>
      <point x="-1581" y="147" type="qcurve" smooth="yes"/>
      <point x="-1581" y="202"/>
      <point x="-1524" y="283"/>
      <point x="-1480" y="302" type="qcurve" smooth="yes"/>
      <point x="-1451" y="315"/>
    </contour>
    <contour>
      <point x="-571" y="315" type="qcurve" smooth="yes"/>
      <point x="-516" y="315"/>
      <point x="-437" y="257"/>
      <point x="-418" y="212" type="qcurve" smooth="yes"/>
      <point x="-405" y="183"/>
      <point x="-405" y="147" type="qcurve" smooth="yes"/>
      <point x="-405" y="76"/>
      <point x="-500" y="-18"/>
      <point x="-571" y="-18" type="qcurve" smooth="yes"/>
      <point x="-626" y="-18"/>
      <point x="-705" y="39"/>
      <point x="-724" y="83" type="qcurve" smooth="yes"/>
      <point x="-737" y="112"/>
      <point x="-737" y="147" type="qcurve" smooth="yes"/>
      <point x="-737" y="202"/>
      <point x="-680" y="283"/>
      <point x="-636" y="302" type="qcurve" smooth="yes"/>
      <point x="-607" y="315"/>
    </contour>
  </outline>
</glyph>
<glyph name="period_question.liga" format="2">
  <advance width="1126"/>
  <outline>
    <contour>
      <point x="260" y="456" type="line"/>
      <point x="456" y="456" type="line"/>
      <point x="456" y="538" type="line" smooth="yes"/>
      <point x="456" y="616"/>
      <point x="498" y="682"/>
      <point x="584" y="738" type="curve" smooth="yes"/>
      <point x="732" y="833"/>
      <point x="806" y="954"/>
      <point x="806" y="1102" type="curve" smooth="yes"/>
      <point x="806" y="1316"/>
      <point x="656" y="1440"/>
      <point x="396" y="1440" type="curve"/>
      <point x="394" y="1250" type="line"/>
      <point x="516" y="1250"/>
      <point x="586" y="1192"/>
      <point x="586" y="1092" type="curve" smooth="yes"/>
      <point x="586" y="1000"/>
      <point x="532" y="921"/>
      <point x="424" y="854" type="curve" smooth="yes"/>
      <point x="314" y="784"/>
      <point x="260" y="684"/>
      <point x="260" y="552" type="curve" smooth="yes"/>
    </contour>
    <contour>
      <point x="54" y="1078" type="line"/>
      <point x="139" y="1182"/>
      <point x="269" y="1250"/>
      <point x="394" y="1250" type="curve"/>
      <point x="396" y="1440" type="line"/>
      <point x="195" y="1440"/>
      <point x="9" y="1353"/>
      <point x="-84" y="1221" type="curve"/>
    </contour>
    <contour>
      <point x="362" y="-20" type="curve" smooth="yes"/>
      <point x="444" y="-20"/>
      <point x="510" y="46"/>
      <point x="510" y="128" type="curve" smooth="yes"/>
      <point x="510" y="210"/>
      <point x="444" y="276"/>
      <point x="362" y="276" type="curve" smooth="yes"/>
      <point x="280" y="276"/>
      <point x="214" y="210"/>
      <point x="214" y="128" type="curve" smooth="yes"/>
      <point x="214" y="46"/>
      <point x="280" y="-20"/>
    </contour>
    <contour>
      <point x="-500" y="-20" type="curve" smooth="yes"/>
      <point x="-418" y="-20"/>
      <point x="-352" y="46"/>
      <point x="-352" y="128" type="curve" smooth="yes"/>
      <point x="-352" y="210"/>
      <point x="-418" y="276"/>
      <point x="-500" y="276" type="curve" smooth="yes"/>
      <point x="-582" y="276"/>
      <point x="-648" y="210"/>
      <point x="-648" y="128" type="curve" smooth="yes"/>
      <point x="-648" y="46"/>
      <point x="-582" y="-20"/>
    </contour>
  </outline>
</glyph>
<glyph name="plus_greater.liga" format="2">
  <advance width="1126"/>
  <outline>
    <contour>
      <point x="6" y="214" type="line"/>
      <point x="964" y="608" type="line"/>
      <point x="964" y="810" type="line"/>
      <point x="6" y="1204" type="line"/>
      <point x="6" y="984" type="line"/>
      <point x="706" y="718" type="line"/>
      <point x="706" y="700" type="line"/>
      <point x="6" y="434" type="line"/>
    </contour>
    <contour>
      <point x="-516" y="190" type="line"/>
      <point x="-324" y="190" type="line"/>
      <point x="-324" y="1228" type="line"/>
      <point x="-516" y="1228" type="line"/>
    </contour>
    <contour>
      <point x="-920" y="617" type="line"/>
      <point x="80" y="617" type="line"/>
      <point x="80" y="803" type="line"/>
      <point x="-920" y="803" type="line"/>
    </contour>
  </outline>
</glyph>
<glyph name="plus_plus.liga" format="2">
  <advance width="1126"/>
  <outline>
    <contour>
      <point x="364" y="190" type="line"/>
      <point x="556" y="190" type="line"/>
      <point x="556" y="1228" type="line"/>
      <point x="364" y="1228" type="line"/>
    </contour>
    <contour>
      <point x="-40" y="617" type="line"/>
      <point x="960" y="617" type="line"/>
      <point x="960" y="803" type="line"/>
      <point x="-40" y="803" type="line"/>
    </contour>
    <contour>
      <point x="-556" y="190" type="line"/>
      <point x="-364" y="190" type="line"/>
      <point x="-364" y="1228" type="line"/>
      <point x="-556" y="1228" type="line"/>
    </contour>
    <contour>
      <point x="-960" y="617" type="line"/>
      <point x="40" y="617" type="line"/>
      <point x="40" y="803" type="line"/>
      <point x="-960" y="803" type="line"/>
    </contour>
  </outline>
</glyph>
<glyph name="plus_plus_plus.liga" format="2">
  <advance width="1126"/>
  <outline>
    <contour>
      <point x="-696" y="190" type="line"/>
      <point x="-504" y="190" type="line"/>
      <point x="-504" y="1228" type="line"/>
      <point x="-696" y="1228" type="line"/>
    </contour>
    <contour>
      <point x="-1100" y="617" type="line"/>
      <point x="-100" y="617" type="line"/>
      <point x="-100" y="803" type="line"/>
      <point x="-1100" y="803" type="line"/>
    </contour>
    <contour>
      <point x="324" y="190" type="line"/>
      <point x="516" y="190" type="line"/>
      <point x="516" y="1228" type="line"/>
      <point x="324" y="1228" type="line"/>
    </contour>
    <contour>
      <point x="-80" y="617" type="line"/>
      <point x="920" y="617" type="line"/>
      <point x="920" y="803" type="line"/>
      <point x="-80" y="803" type="line"/>
    </contour>
    <contour>
      <point x="-1716" y="190" type="line"/>
      <point x="-1524" y="190" type="line"/>
      <point x="-1524" y="1228" type="line"/>
      <point x="-1716" y="1228" type="line"/>
    </contour>
    <contour>
      <point x="-2120" y="617" type="line"/>
      <point x="-1120" y="617" type="line"/>
      <point x="-1120" y="803" type="line"/>
      <point x="-2120" y="803" type="line"/>
    </contour>
    <contour>
      <point x="-539" y="617" type="line"/>
      <point x="346" y="617" type="line"/>
      <point x="346" y="803" type="line"/>
      <point x="-539" y="803" type="line"/>
    </contour>
    <contour>
      <point x="-1539" y="617" type="line"/>
      <point x="-654" y="617" type="line"/>
      <point x="-654" y="803" type="line"/>
      <point x="-1539" y="803" type="line"/>
    </contour>
  </outline>
</glyph>
<glyph name="question_equal.liga" format="2">
  <advance width="1126"/>
  <outline>
    <contour>
      <point x="852" y="646" type="line"/>
      <point x="-8" y="646" type="line"/>
      <point x="102" y="793" type="line"/>
      <point x="852" y="793" type="line"/>
    </contour>
    <contour>
      <point x="852" y="298" type="line"/>
      <point x="-8" y="298" type="line"/>
      <point x="-8" y="445" type="line"/>
      <point x="852" y="445" type="line"/>
    </contour>
    <contour>
      <point x="-252" y="952" type="qcurve" smooth="yes"/>
      <point x="-252" y="1015"/>
      <point x="-295" y="1118"/>
      <point x="-369" y="1188"/>
      <point x="-472" y="1236"/>
      <point x="-590" y="1257"/>
      <point x="-657" y="1257" type="qcurve" smooth="yes"/>
      <point x="-682" y="1257" type="line"/>
      <point x="-682" y="1413" type="line"/>
      <point x="-655" y="1413" type="line" smooth="yes"/>
      <point x="-470" y="1413"/>
      <point x="-203" y="1288"/>
      <point x="-126" y="1173" type="qcurve" smooth="yes"/>
      <point x="-63" y="1077"/>
      <point x="-63" y="969" type="qcurve" smooth="yes"/>
      <point x="-63" y="652"/>
      <point x="-414" y="629" type="qcurve"/>
      <point x="-422" y="383" type="line"/>
      <point x="-571" y="383" type="line"/>
      <point x="-584" y="766" type="line"/>
      <point x="-467" y="766" type="line" smooth="yes"/>
      <point x="-361" y="766"/>
      <point x="-252" y="854"/>
    </contour>
    <contour>
      <point x="-629" y="113" type="qcurve" smooth="yes"/>
      <point x="-629" y="170"/>
      <point x="-555" y="246"/>
      <point x="-441" y="246"/>
      <point x="-367" y="170"/>
      <point x="-367" y="56"/>
      <point x="-441" y="-18"/>
      <point x="-498" y="-18" type="qcurve" smooth="yes"/>
      <point x="-554" y="-18"/>
      <point x="-629" y="57"/>
    </contour>
  </outline>
</glyph>
<glyph name="question_period.liga" format="2">
  <advance width="1126"/>
  <outline>
    <contour>
      <point x="414" y="315" type="curve" smooth="yes"/>
      <point x="492" y="315"/>
      <point x="543" y="268"/>
      <point x="567" y="212" type="curve" smooth="yes"/>
      <point x="576" y="192"/>
      <point x="580" y="170"/>
      <point x="580" y="147" type="curve" smooth="yes"/>
      <point x="580" y="52"/>
      <point x="509" y="-18"/>
      <point x="414" y="-18" type="curve" smooth="yes"/>
      <point x="337" y="-18"/>
      <point x="285" y="28"/>
      <point x="261" y="83" type="curve" smooth="yes"/>
      <point x="252" y="103"/>
      <point x="248" y="124"/>
      <point x="248" y="147" type="curve" smooth="yes"/>
      <point x="248" y="224"/>
      <point x="294" y="278"/>
      <point x="349" y="302" type="curve" smooth="yes"/>
      <point x="369" y="311"/>
      <point x="391" y="315"/>
    </contour>
    <contour>
      <point x="-252" y="952" type="curve" smooth="yes"/>
      <point x="-252" y="1169"/>
      <point x="-439" y="1257"/>
      <point x="-657" y="1257" type="curve" smooth="yes"/>
      <point x="-682" y="1257" type="line"/>
      <point x="-682" y="1413" type="line"/>
      <point x="-655" y="1413" type="line" smooth="yes"/>
      <point x="-403" y="1413"/>
      <point x="-226" y="1323"/>
      <point x="-126" y="1173" type="curve" smooth="yes"/>
      <point x="-90" y="1118"/>
      <point x="-63" y="1050"/>
      <point x="-63" y="969" type="curve" smooth="yes"/>
      <point x="-63" y="743"/>
      <point x="-197" y="643"/>
      <point x="-414" y="629" type="curve"/>
      <point x="-422" y="383" type="line"/>
      <point x="-571" y="383" type="line"/>
      <point x="-584" y="766" type="line"/>
      <point x="-467" y="766" type="line" smooth="yes"/>
      <point x="-330" y="766"/>
      <point x="-252" y="817"/>
    </contour>
    <contour>
      <point x="-629" y="113" type="curve" smooth="yes"/>
      <point x="-629" y="189"/>
      <point x="-574" y="246"/>
      <point x="-498" y="246" type="curve" smooth="yes"/>
      <point x="-422" y="246"/>
      <point x="-367" y="189"/>
      <point x="-367" y="113" type="curve" smooth="yes"/>
      <point x="-367" y="37"/>
      <point x="-422" y="-18"/>
      <point x="-498" y="-18" type="curve" smooth="yes"/>
      <point x="-573" y="-18"/>
      <point x="-629" y="38"/>
    </contour>
  </outline>
</glyph>
<glyph name="question_question.liga" format="2">
  <advance width="1126"/>
  <outline>
    <contour>
      <point x="330" y="456" type="line"/>
      <point x="526" y="456" type="line"/>
      <point x="526" y="538" type="line" smooth="yes"/>
      <point x="526" y="616"/>
      <point x="568" y="682"/>
      <point x="654" y="738" type="curve" smooth="yes"/>
      <point x="802" y="833"/>
      <point x="876" y="954"/>
      <point x="876" y="1102" type="curve" smooth="yes"/>
      <point x="876" y="1316"/>
      <point x="726" y="1440"/>
      <point x="466" y="1440" type="curve"/>
      <point x="464" y="1250" type="line"/>
      <point x="586" y="1250"/>
      <point x="656" y="1192"/>
      <point x="656" y="1092" type="curve" smooth="yes"/>
      <point x="656" y="1000"/>
      <point x="602" y="921"/>
      <point x="494" y="854" type="curve" smooth="yes"/>
      <point x="384" y="784"/>
      <point x="330" y="684"/>
      <point x="330" y="552" type="curve" smooth="yes"/>
    </contour>
    <contour>
      <point x="124" y="1078" type="line"/>
      <point x="209" y="1182"/>
      <point x="339" y="1250"/>
      <point x="464" y="1250" type="curve"/>
      <point x="466" y="1440" type="line"/>
      <point x="265" y="1440"/>
      <point x="79" y="1353"/>
      <point x="-14" y="1221" type="curve"/>
    </contour>
    <contour>
      <point x="432" y="-20" type="curve" smooth="yes"/>
      <point x="514" y="-20"/>
      <point x="580" y="46"/>
      <point x="580" y="128" type="curve" smooth="yes"/>
      <point x="580" y="210"/>
      <point x="514" y="276"/>
      <point x="432" y="276" type="curve" smooth="yes"/>
      <point x="350" y="276"/>
      <point x="284" y="210"/>
      <point x="284" y="128" type="curve" smooth="yes"/>
      <point x="284" y="46"/>
      <point x="350" y="-20"/>
    </contour>
    <contour>
      <point x="-614" y="456" type="line"/>
      <point x="-418" y="456" type="line"/>
      <point x="-418" y="538" type="line" smooth="yes"/>
      <point x="-418" y="616"/>
      <point x="-376" y="682"/>
      <point x="-290" y="738" type="curve" smooth="yes"/>
      <point x="-142" y="833"/>
      <point x="-68" y="954"/>
      <point x="-68" y="1102" type="curve" smooth="yes"/>
      <point x="-68" y="1316"/>
      <point x="-218" y="1440"/>
      <point x="-478" y="1440" type="curve"/>
      <point x="-480" y="1250" type="line"/>
      <point x="-358" y="1250"/>
      <point x="-288" y="1192"/>
      <point x="-288" y="1092" type="curve" smooth="yes"/>
      <point x="-288" y="1000"/>
      <point x="-342" y="921"/>
      <point x="-450" y="854" type="curve" smooth="yes"/>
      <point x="-560" y="784"/>
      <point x="-614" y="684"/>
      <point x="-614" y="552" type="curve" smooth="yes"/>
    </contour>
    <contour>
      <point x="-820" y="1078" type="line"/>
      <point x="-735" y="1182"/>
      <point x="-605" y="1250"/>
      <point x="-480" y="1250" type="curve"/>
      <point x="-478" y="1440" type="line"/>
      <point x="-679" y="1440"/>
      <point x="-865" y="1353"/>
      <point x="-958" y="1221" type="curve"/>
    </contour>
    <contour>
      <point x="-512" y="-20" type="curve" smooth="yes"/>
      <point x="-430" y="-20"/>
      <point x="-364" y="46"/>
      <point x="-364" y="128" type="curve" smooth="yes"/>
      <point x="-364" y="210"/>
      <point x="-430" y="276"/>
      <point x="-512" y="276" type="curve" smooth="yes"/>
      <point x="-594" y="276"/>
      <point x="-660" y="210"/>
      <point x="-660" y="128" type="curve" smooth="yes"/>
      <point x="-660" y="46"/>
      <point x="-594" y="-20"/>
    </contour>
  </outline>
</glyph>
<glyph name="seveninferior" format="2">
  <advance width="1126"/>
  <outline>
    <contour>
      <point x="557" y="0" type="line"/>
      <point x="723" y="0" type="line"/>
      <point x="899" y="618" type="line"/>
      <point x="732" y="618" type="line"/>
    </contour>
    <contour>
      <point x="354" y="323" type="line"/>
      <point x="510" y="323" type="line"/>
      <point x="510" y="604" type="line"/>
      <point x="354" y="604" type="line"/>
    </contour>
    <contour>
      <point x="354" y="479" type="line"/>
      <point x="836" y="479" type="line"/>
      <point x="899" y="618" type="line"/>
      <point x="354" y="618" type="line"/>
    </contour>
  </outline>
</glyph>
<glyph name="six.numr" format="2">
  <advance width="1126"/>
  <outline>
    <contour>
      <point x="590" y="1118" type="curve" smooth="yes"/>
      <point x="770" y="1118"/>
      <point x="887" y="1047"/>
      <point x="887" y="877" type="curve" smooth="yes"/>
      <point x="887" y="697"/>
      <point x="740" y="615"/>
      <point x="559" y="615" type="curve" smooth="yes"/>
      <point x="339" y="615"/>
      <point x="238" y="738"/>
      <point x="238" y="965" type="curve" smooth="yes"/>
      <point x="238" y="1270"/>
      <point x="381" y="1413"/>
      <point x="690" y="1413" type="curve" smooth="yes"/>
      <point x="807" y="1413" type="line"/>
      <point x="807" y="1272" type="line"/>
      <point x="678" y="1272" type="line" smooth="yes"/>
      <point x="531" y="1272"/>
      <point x="437" y="1234"/>
      <point x="424" y="1104" type="curve"/>
      <point x="424" y="1094" type="line"/>
      <point x="464" y="1107"/>
      <point x="534" y="1118"/>
    </contour>
    <contour>
      <point x="569" y="756" type="curve" smooth="yes"/>
      <point x="649" y="756"/>
      <point x="713" y="796"/>
      <point x="713" y="871" type="curve" smooth="yes"/>
      <point x="713" y="948"/>
      <point x="653" y="981"/>
      <point x="567" y="981" type="curve" smooth="yes"/>
      <point x="512" y="981"/>
      <point x="459" y="969"/>
      <point x="418" y="955" type="curve"/>
      <point x="418" y="828"/>
      <point x="452" y="756"/>
    </contour>
  </outline>
</glyph>
<glyph name="sixinferior" format="2">
  <advance width="1126"/>
  <outline>
    <contour>
      <point x="451" y="146" type="line"/>
      <point x="501" y="291" type="line"/>
      <point x="501" y="422"/>
      <point x="593" y="480"/>
      <point x="810" y="486" type="curve"/>
      <point x="802" y="627" type="line"/>
      <point x="467" y="615"/>
      <point x="324" y="501"/>
      <point x="324" y="247" type="curve" smooth="yes"/>
      <point x="324" y="226" type="line"/>
    </contour>
    <contour>
      <point x="609" y="-20" type="curve" smooth="yes"/>
      <point x="782" y="-20"/>
      <point x="880" y="58"/>
      <point x="880" y="193" type="curve" smooth="yes"/>
      <point x="880" y="312"/>
      <point x="809" y="380"/>
      <point x="682" y="380" type="curve" smooth="yes"/>
      <point x="594" y="380"/>
      <point x="529" y="348"/>
      <point x="509" y="292" type="curve"/>
      <point x="478" y="292" type="line"/>
      <point x="448" y="156" type="line"/>
      <point x="324" y="226" type="line"/>
      <point x="324" y="69"/>
      <point x="427" y="-20"/>
    </contour>
    <contour>
      <point x="604" y="110" type="curve" smooth="yes"/>
      <point x="537" y="110"/>
      <point x="500" y="135"/>
      <point x="500" y="185" type="curve" smooth="yes"/>
      <point x="500" y="234"/>
      <point x="538" y="262"/>
      <point x="604" y="262" type="curve" smooth="yes"/>
      <point x="669" y="262"/>
      <point x="704" y="235"/>
      <point x="704" y="188" type="curve" smooth="yes"/>
      <point x="704" y="138"/>
      <point x="669" y="110"/>
    </contour>
  </outline>
</glyph>
<glyph name="slash_asterisk.liga" format="2">
  <advance width="1126"/>
  <outline>
    <contour>
      <point x="766" y="258" type="line"/>
      <point x="932" y="398" type="line"/>
      <point x="596" y="744" type="line"/>
      <point x="484" y="648" type="line"/>
    </contour>
    <contour>
      <point x="314" y="258" type="line"/>
      <point x="596" y="648" type="line"/>
      <point x="484" y="744" type="line"/>
      <point x="148" y="398" type="line"/>
    </contour>
    <contour>
      <point x="514" y="626" type="line"/>
      <point x="566" y="766" type="line"/>
      <point x="126" y="962" type="line"/>
      <point x="52" y="758" type="line"/>
    </contour>
    <contour>
      <point x="466" y="696" type="line"/>
      <point x="614" y="696" type="line"/>
      <point x="648" y="1176" type="line"/>
      <point x="432" y="1176" type="line"/>
    </contour>
    <contour>
      <point x="566" y="626" type="line"/>
      <point x="1028" y="758" type="line"/>
      <point x="954" y="962" type="line"/>
      <point x="514" y="766" type="line"/>
    </contour>
    <contour>
      <point x="-976" y="-190" type="line"/>
      <point x="-764" y="-190" type="line"/>
      <point x="40" y="1610" type="line"/>
      <point x="-172" y="1610" type="line"/>
    </contour>
  </outline>
</glyph>
<glyph name="slash_equal.liga" format="2">
  <advance width="1126"/>
  <outline>
    <contour>
      <point x="-976" y="-190" type="line"/>
      <point x="-764" y="-190" type="line"/>
      <point x="40" y="1610" type="line"/>
      <point x="-172" y="1610" type="line"/>
    </contour>
    <contour>
      <point x="-308" y="366" type="line"/>
      <point x="922" y="366" type="line"/>
      <point x="922" y="552" type="line"/>
      <point x="-218" y="552" type="line"/>
    </contour>
    <contour>
      <point x="-78" y="866" type="line"/>
      <point x="922" y="866" type="line"/>
      <point x="922" y="1052" type="line"/>
      <point x="12" y="1052" type="line"/>
    </contour>
  </outline>
</glyph>
<glyph name="slash_greater.liga" format="2">
  <advance width="1126"/>
  <outline>
    <contour>
      <point x="-976" y="-190" type="line"/>
      <point x="-764" y="-190" type="line"/>
      <point x="40" y="1610" type="line"/>
      <point x="-172" y="1610" type="line"/>
    </contour>
    <contour>
      <point x="48" y="214" type="line"/>
      <point x="1006" y="608" type="line"/>
      <point x="1006" y="810" type="line"/>
      <point x="-226" y="1317" type="line"/>
      <point x="-226" y="1102" type="line"/>
      <point x="748" y="718" type="line"/>
      <point x="748" y="700" type="line"/>
      <point x="48" y="434" type="line"/>
    </contour>
  </outline>
</glyph>
<glyph name="slash_slash.liga" format="2">
  <advance width="1126"/>
  <outline>
    <contour>
      <point x="-44" y="-190" type="line"/>
      <point x="168" y="-190" type="line"/>
      <point x="972" y="1610" type="line"/>
      <point x="760" y="1610" type="line"/>
    </contour>
    <contour>
      <point x="-926" y="-190" type="line"/>
      <point x="-714" y="-190" type="line"/>
      <point x="90" y="1610" type="line"/>
      <point x="-122" y="1610" type="line"/>
    </contour>
  </outline>
</glyph>
<glyph name="slash_slash_slash.liga" format="2">
  <advance width="1126"/>
  <outline>
    <contour>
      <point x="-1066" y="-190" type="line"/>
      <point x="-854" y="-190" type="line"/>
      <point x="-50" y="1610" type="line"/>
      <point x="-262" y="1610" type="line"/>
    </contour>
    <contour>
      <point x="-2086" y="-190" type="line"/>
      <point x="-1874" y="-190" type="line"/>
      <point x="-1070" y="1610" type="line"/>
      <point x="-1282" y="1610" type="line"/>
    </contour>
    <contour>
      <point x="-76" y="-190" type="line"/>
      <point x="136" y="-190" type="line"/>
      <point x="940" y="1610" type="line"/>
      <point x="728" y="1610" type="line"/>
    </contour>
  </outline>
</glyph>
<glyph name="three.dnom" format="2">
  <advance width="1126"/>
  <outline>
    <contour>
      <point x="554" y="-20" type="curve" smooth="yes"/>
      <point x="740" y="-18"/>
      <point x="847" y="51"/>
      <point x="847" y="175" type="curve" smooth="yes"/>
      <point x="847" y="265"/>
      <point x="770" y="317"/>
      <point x="656" y="327" type="curve" smooth="yes"/>
      <point x="483" y="342" type="line"/>
      <point x="483" y="246" type="line"/>
      <point x="547" y="246" type="line" smooth="yes"/>
      <point x="628" y="246"/>
      <point x="674" y="227"/>
      <point x="674" y="194" type="curve" smooth="yes"/>
      <point x="674" y="154"/>
      <point x="625" y="131"/>
      <point x="540" y="131" type="curve" smooth="yes"/>
      <point x="472" y="131"/>
      <point x="418" y="144"/>
      <point x="377" y="152" type="curve"/>
      <point x="336" y="6" type="line"/>
      <point x="393" y="-11"/>
      <point x="467" y="-21"/>
    </contour>
    <contour>
      <point x="483" y="246" type="line"/>
      <point x="681" y="276" type="line"/>
      <point x="681" y="348" type="line"/>
      <point x="770" y="366"/>
      <point x="830" y="420"/>
      <point x="830" y="489" type="curve" smooth="yes"/>
      <point x="830" y="578"/>
      <point x="738" y="627"/>
      <point x="574" y="627" type="curve" smooth="yes"/>
      <point x="490" y="627"/>
      <point x="414" y="618"/>
      <point x="348" y="597" type="curve"/>
      <point x="369" y="448" type="line"/>
      <point x="420" y="467"/>
      <point x="477" y="477"/>
      <point x="544" y="477" type="curve" smooth="yes"/>
      <point x="616" y="477"/>
      <point x="656" y="458"/>
      <point x="656" y="428" type="curve" smooth="yes"/>
      <point x="656" y="396"/>
      <point x="602" y="371"/>
      <point x="473" y="362" type="curve"/>
    </contour>
  </outline>
</glyph>
<glyph name="two.dnom" format="2">
  <advance width="1126"/>
  <outline>
    <contour>
      <point x="342" y="-1" type="line"/>
      <point x="588" y="-1" type="line"/>
      <point x="588" y="152" type="line"/>
      <point x="752" y="240"/>
      <point x="832" y="335"/>
      <point x="832" y="439" type="curve" smooth="yes"/>
      <point x="832" y="558"/>
      <point x="730" y="637"/>
      <point x="574" y="637" type="curve" smooth="yes"/>
      <point x="469" y="637"/>
      <point x="376" y="613"/>
      <point x="317" y="569" type="curve"/>
      <point x="383" y="431" type="line"/>
      <point x="435" y="461"/>
      <point x="490" y="477"/>
      <point x="537" y="477" type="curve" smooth="yes"/>
      <point x="605" y="477"/>
      <point x="639" y="445"/>
      <point x="639" y="384" type="curve" smooth="yes"/>
      <point x="639" y="304"/>
      <point x="541" y="226"/>
      <point x="342" y="156" type="curve"/>
    </contour>
    <contour>
      <point x="368" y="-1" type="line"/>
      <point x="858" y="-1" type="line"/>
      <point x="858" y="139" type="line"/>
      <point x="368" y="139" type="line"/>
    </contour>
  </outline>
</glyph>
<glyph name="two.numr" format="2">
  <advance width="1126"/>
  <outline>
    <contour>
      <point x="252" y="1317" type="line"/>
      <point x="365" y="1430"/>
      <point x="539" y="1430" type="qcurve" smooth="yes"/>
      <point x="743" y="1430"/>
      <point x="813" y="1292" type="qcurve" smooth="yes"/>
      <point x="836" y="1246"/>
      <point x="836" y="1186" type="qcurve" smooth="yes"/>
      <point x="836" y="1107"/>
      <point x="769" y="996"/>
      <point x="709" y="943" type="qcurve" smooth="yes"/>
      <point x="668" y="906"/>
      <point x="612" y="867" type="qcurve" smooth="yes"/>
      <point x="498" y="785" type="line"/>
      <point x="883" y="785" type="line"/>
      <point x="883" y="631" type="line"/>
      <point x="246" y="631" type="line"/>
      <point x="246" y="774" type="line"/>
      <point x="463" y="942" type="line" smooth="yes"/>
      <point x="468" y="945"/>
      <point x="503" y="973"/>
      <point x="512" y="980"/>
      <point x="541" y="1003"/>
      <point x="553" y="1013"/>
      <point x="576" y="1034"/>
      <point x="590" y="1048"/>
      <point x="607" y="1067"/>
      <point x="615" y="1076" type="qcurve" smooth="yes"/>
      <point x="651" y="1120"/>
      <point x="651" y="1174" type="qcurve" smooth="yes"/>
      <point x="651" y="1226"/>
      <point x="578" y="1280"/>
      <point x="518" y="1280" type="qcurve" smooth="yes"/>
      <point x="416" y="1280"/>
      <point x="338" y="1211" type="qcurve"/>
    </contour>
  </outline>
</glyph>
<glyph name="twoinferior" format="2">
  <advance width="1126"/>
  <outline>
    <contour>
      <point x="252" y="686" type="line"/>
      <point x="317" y="751"/>
      <point x="416" y="799"/>
      <point x="539" y="799" type="curve" smooth="yes"/>
      <point x="672" y="799"/>
      <point x="768" y="749"/>
      <point x="813" y="660" type="curve" smooth="yes"/>
      <point x="828" y="630"/>
      <point x="836" y="595"/>
      <point x="836" y="555" type="curve" smooth="yes"/>
      <point x="836" y="439"/>
      <point x="775" y="370"/>
      <point x="709" y="312" type="curve" smooth="yes"/>
      <point x="681" y="287"/>
      <point x="649" y="262"/>
      <point x="612" y="236" type="curve" smooth="yes"/>
      <point x="498" y="154" type="line"/>
      <point x="883" y="154" type="line"/>
      <point x="883" y="0" type="line"/>
      <point x="246" y="0" type="line"/>
      <point x="246" y="143" type="line"/>
      <point x="463" y="311" type="line" smooth="yes"/>
      <point x="525" y="359"/>
      <point x="573" y="395"/>
      <point x="615" y="446" type="curve" smooth="yes"/>
      <point x="639" y="475"/>
      <point x="651" y="498"/>
      <point x="651" y="543" type="curve" smooth="yes"/>
      <point x="651" y="614"/>
      <point x="595" y="649"/>
      <point x="518" y="649" type="curve" smooth="yes"/>
      <point x="442" y="649"/>
      <point x="381" y="618"/>
      <point x="338" y="580" type="curve"/>
    </contour>
  </outline>
</glyph>
<glyph name="underscore_bar_underscore.liga" format="2">
  <advance width="1126"/>
  <outline>
    <contour>
      <point x="-481" y="-266" type="line"/>
      <point x="844" y="-266" type="line"/>
      <point x="844" y="-410" type="line"/>
      <point x="-1970" y="-410" type="line"/>
      <point x="-1970" y="-266" type="line"/>
      <point x="-645" y="-266" type="line"/>
      <point x="-645" y="1638" type="line"/>
      <point x="-481" y="1638" type="line"/>
    </contour>
  </outline>
</glyph>
<glyph name="underscore_underscore.liga" format="2">
  <advance width="1126"/>
  <outline>
    <contour>
      <point x="-920" y="-176" type="line"/>
      <point x="920" y="-176" type="line"/>
      <point x="920" y="0" type="line"/>
      <point x="-920" y="0" type="line"/>
    </contour>
  </outline>
</glyph>
<glyph name="x.multiply" format="2">
  <advance width="1126"/>
  <outline>
    <contour>
      <point x="249" y="188" type="line"/>
      <point x="121" y="309" type="line"/>
      <point x="951" y="1188" type="line"/>
      <point x="1079" y="1065" type="line"/>
    </contour>
    <contour>
      <point x="951" y="188" type="line"/>
      <point x="121" y="1065" type="line"/>
      <point x="249" y="1188" type="line"/>
      <point x="1079" y="309" type="line"/>
    </contour>
  </outline>
</glyph>
<glyph name="zero.dnom" format="2">
  <advance width="1126"/>
  <outline>
    <contour>
      <point x="573" y="799" type="curve" smooth="yes"/>
      <point x="811" y="799"/>
      <point x="921" y="641"/>
      <point x="921" y="397" type="curve" smooth="yes"/>
      <point x="921" y="149"/>
      <point x="799" y="-16"/>
      <point x="553" y="-16" type="curve" smooth="yes"/>
      <point x="315" y="-16"/>
      <point x="205" y="141"/>
      <point x="205" y="385" type="curve" smooth="yes"/>
      <point x="205" y="634"/>
      <point x="326" y="799"/>
    </contour>
    <contour>
      <point x="383" y="391" type="curve" smooth="yes"/>
      <point x="383" y="241"/>
      <point x="420" y="123"/>
      <point x="563" y="123" type="curve" smooth="yes"/>
      <point x="699" y="123"/>
      <point x="743" y="250"/>
      <point x="743" y="391" type="curve" smooth="yes"/>
      <point x="743" y="541"/>
      <point x="706" y="659"/>
      <point x="563" y="659" type="curve" smooth="yes"/>
      <point x="426" y="659"/>
      <point x="383" y="533"/>
    </contour>
  </outline>
</glyph>
<glyph name="zero.zero" format="2">
  <advance width="1126"/>
  <outline>
    <contour>
      <point x="1038" y="653" type="curve" smooth="yes"/>
      <point x="1038" y="360"/>
      <point x="955" y="131"/>
      <point x="765" y="30" type="curve" smooth="yes"/>
      <point x="704" y="-2"/>
      <point x="634" y="-18"/>
      <point x="553" y="-18" type="curve" smooth="yes"/>
      <point x="299" y="-18"/>
      <point x="176" y="142"/>
      <point x="121" y="352" type="curve" smooth="yes"/>
      <point x="99" y="437"/>
      <point x="88" y="537"/>
      <point x="88" y="653" type="curve" smooth="yes"/>
      <point x="88" y="945"/>
      <point x="172" y="1174"/>
      <point x="361" y="1276" type="curve" smooth="yes"/>
      <point x="422" y="1309"/>
      <point x="492" y="1325"/>
      <point x="573" y="1325" type="curve" smooth="yes"/>
      <point x="828" y="1325"/>
      <point x="950" y="1165"/>
      <point x="1005" y="954" type="curve" smooth="yes"/>
      <point x="1027" y="869"/>
      <point x="1038" y="769"/>
    </contour>
    <contour>
      <point x="862" y="647" type="curve" smooth="yes"/>
      <point x="862" y="855"/>
      <point x="823" y="1040"/>
      <point x="706" y="1131" type="curve" smooth="yes"/>
      <point x="668" y="1161"/>
      <point x="620" y="1176"/>
      <point x="563" y="1176" type="curve" smooth="yes"/>
      <point x="457" y="1176"/>
      <point x="389" y="1117"/>
      <point x="345" y="1044" type="curve" smooth="yes"/>
      <point x="289" y="950"/>
      <point x="264" y="816"/>
      <point x="264" y="659" type="curve" smooth="yes"/>
      <point x="264" y="452"/>
      <point x="304" y="267"/>
      <point x="420" y="176" type="curve" smooth="yes"/>
      <point x="458" y="146"/>
      <point x="506" y="131"/>
      <point x="563" y="131" type="curve" smooth="yes"/>
      <point x="669" y="131"/>
      <point x="737" y="189"/>
      <point x="781" y="262" type="curve" smooth="yes"/>
      <point x="837" y="356"/>
      <point x="862" y="490"/>
    </contour>
    <contour>
      <point x="438" y="659" type="curve" smooth="yes"/>
      <point x="438" y="730"/>
      <point x="492" y="786"/>
      <point x="563" y="786" type="curve" smooth="yes"/>
      <point x="635" y="786"/>
      <point x="688" y="731"/>
      <point x="688" y="659" type="curve" smooth="yes"/>
      <point x="688" y="588"/>
      <point x="634" y="535"/>
      <point x="563" y="535" type="curve" smooth="yes"/>
      <point x="492" y="535"/>
      <point x="438" y="589"/>
    </contour>
  </outline>
</glyph>
